<svg viewBox="0 0 134.407 29.885" xmlns="http://www.w3.org/2000/svg">
    <title>Vendr</title>
    <path d="m 24.209352,13.59439 c 0.738364,-3.53e-4 1.337028,-0.598664 1.337381,-1.337381 0,-0.738363 -0.598664,-1.33738 -1.337381,-1.337733 -0.738717,0 -1.337733,0.598664 -1.337733,1.337381 v 3.52e-4 c 0,0.738717 0.599016,1.337381 1.337733,1.337381" />
    <path d="M 11.157775,-1e-5 H 1.0055363 c -0.77328884,0 -1.2562416,0.83714165 -0.86924439,1.5063611 L 16.232836,29.38285 c 0.386292,0.669573 1.35255,0.669573 1.738842,0 l 8.045449,-13.972469 h -5.967941 z" />
    <path d="m 33.197954,-1e-5 h -10.15118 l 5.9436,10.298289 5.076824,-8.7919279 C 34.454196,0.83713165 33.971243,-1e-5 33.197954,-1e-5" />
    <path d="m 112.53273,19.97424 c -1.04387,1.043517 -2.2673,1.547636 -3.74297,1.547636 -1.47567,0 -2.73509,-0.504119 -3.77896,-1.547636 -1.00753,-1.043869 -1.5113,-2.303286 -1.5113,-3.778955 0,-1.47567 0.50377,-2.735087 1.5113,-3.778956 1.04387,-1.043517 2.26731,-1.547636 3.74297,-1.547636 1.47567,0 2.73509,0.504119 3.77896,1.547636 1.04352,1.043869 1.54764,2.303286 1.54764,3.778956 0,1.475669 -0.50412,2.735086 -1.54764,3.778955 M 117.21127,-3.73374e-5 h -2.23132 c -0.61172,0 -0.93557,0.2878666574 -0.89958,0.8995833174 V 8.9252402 c -1.61961,-1.3313833 -3.38314,-2.0150666 -5.29061,-2.0150666 -2.55552,0 -4.71452,0.9355667 -6.55003,2.7710694 -1.8355,1.835503 -2.735436,3.994855 -2.735436,6.514042 0,2.555169 0.899936,4.714522 2.735436,6.550024 1.83551,1.835503 3.99451,2.735086 6.55003,2.735086 1.97943,0 3.77895,-0.719666 5.47052,-2.123369 v 1.043869 c 0,0.53975 0.28787,0.827617 0.89959,0.791634 h 2.0514 c 0.61172,0 0.89993,-0.287867 0.89993,-0.8636 V 0.89954598 c 0,-0.61171666 -0.28821,-0.8995833174 -0.89993,-0.8995833174" />
    <path d="m 130.81749,6.91162 h -1.29575 c -1.7272,0 -3.05859,0.5037667 -4.03049,1.5472833 V 7.8471866 c 0,-0.4317999 -0.28787,-0.6476999 -0.82762,-0.6476999 h -2.0514 c -0.61171,0 -0.93556,0.2878666 -0.89958,0.8995833 v 16.229894 c -0.036,0.575733 0.28787,0.8636 0.89958,0.8636 h 2.23132 c 0.61172,0 0.89994,-0.287867 0.89994,-0.8636 v -9.860139 c 0.0356,-1.979436 1.61925,-3.526719 3.74226,-3.526719 0.28787,0 1.04387,0.03598 1.36737,0.03598 0.61207,0.03598 0.89958,-0.251883 0.89958,-0.791986 l 0.0363,-2.3389164 c 0.0356,-0.5757333 -0.28822,-0.8995833 -0.97155,-0.9355666" />
    <path d="m 89.662114,6.91006 c -1.583619,0 -2.987322,0.5037667 -4.174772,1.5476361 V 7.8096433 7.7623711 c 0,-0.3118556 -0.252942,-0.5644444 -0.564797,-0.5644444 h -0.155223 -0.650169 -1.087614 -0.313267 -0.338313 c -0.311503,0 -0.564445,0.2525888 -0.564445,0.5644444 v 1.6905111 h 0.0028 V 24.328815 c -0.03598,0.576086 0.287867,0.863953 0.899936,0.863953 h 2.230967 c 0.61207,0 0.93592,-0.287867 0.899936,-0.863953 v -9.861197 c 0,-1.907116 1.69157,-3.526719 3.706989,-3.526719 2.123369,0 3.778603,1.655586 3.778603,3.706636 v 9.68128 c -0.03563,0.576086 0.252236,0.863953 0.863952,0.863953 H 96.464 c 0.611717,0 0.899583,-0.287867 0.8636,-0.863953 v -9.716911 c 0,-4.606925 -2.807053,-7.701844 -7.665508,-7.701844" />
    <path d="m 66.196614,14.57578 c 0.03598,-1.151467 0.53975,-2.123369 1.475669,-2.915355 0.935567,-0.791634 2.01542,-1.18745 3.238853,-1.18745 2.483556,0 4.138789,1.655586 4.283075,4.102805 z m 4.822825,-7.6658609 c -2.555522,0 -4.750858,0.8995833 -6.514394,2.6994555 -1.763184,1.7631834 -2.627136,3.9585194 -2.627136,6.5856554 0,2.699455 0.899583,4.894792 2.663119,6.658328 1.763536,1.763536 4.030839,2.627136 6.802261,2.627136 2.267303,0 4.390672,-0.6477 6.298141,-1.90747 0.395817,-0.287866 0.575734,-0.53975 0.575734,-0.791633 0,-0.179917 -0.07197,-0.359833 -0.179917,-0.53975 l -0.750358,-1.330325 c -0.448028,-0.794103 -1.156053,-0.4318 -1.156053,-0.4318 l -0.993775,0.482953 c -1.083733,0.531283 -2.249311,0.811036 -3.541889,0.811036 -1.367719,0 -2.591153,-0.395817 -3.671005,-1.223433 -1.04387,-0.82797 -1.619603,-1.835503 -1.655586,-2.950987 h 12.056533 c 0.612069,0 0.899583,-0.576086 0.899583,-1.691922 0,-2.699102 -0.75565,-4.894438 -2.231319,-6.5140412 C 75.518061,7.7375357 73.538625,6.9099191 71.019439,6.9099191" />
    <path d="m 61.132344,7.1979 h -2.902303 c -0.325614,0 -0.6223,0.1869722 -0.763411,0.4804833 L 52.118519,18.825455 46.752064,7.677325 C 46.610953,7.3841667 46.314619,7.1979 45.989358,7.1979 h -2.84868 c -0.41275,0 -0.686153,0.4289778 -0.511175,0.803275 l 7.7216,16.539986 c 0.185561,0.39758 0.5842,0.65158 1.022702,0.65158 h 1.525411 c 0.438503,0 0.837495,-0.254 1.022703,-0.65158 L 61.643872,8.001175 C 61.818497,7.6268778 61.545447,7.1979 61.132344,7.1979" />
    <path d="m 132.17148,22.36286 h 0.28469 c 0.1845,0 0.29528,0.152753 0.29528,0.337256 0,0.195086 -0.11078,0.358775 -0.29528,0.358775 h -0.28469 z m -0.13194,1.98755 c 0.0896,0 0.13194,-0.04198 0.13194,-0.131586 v -0.775053 h 0.0265 l 0.49036,0.817033 c 0.0367,0.05821 0.0896,0.08961 0.15804,0.08961 h 0.17921 c 0.10549,0 0.14782,-0.06844 0.0896,-0.158044 l -0.49036,-0.812095 c 0.3429,-0.03669 0.53799,-0.284692 0.53799,-0.680155 0,-0.416278 -0.26353,-0.70097 -0.69074,-0.70097 h -0.57468 c -0.0896,0 -0.13194,0.04198 -0.13194,0.131586 v 2.088092 c 0,0.0896 0.0423,0.131586 0.13194,0.131586 z m -0.85937,-2.388306 c -0.33196,0.332317 -0.50059,0.738012 -0.50059,1.207559 0,0.474486 0.16863,0.88018 0.50059,1.212497 0.33232,0.331964 0.73837,0.500944 1.20756,0.500944 0.47978,0 0.89077,-0.16898 1.23367,-0.506236 0.34254,-0.337608 0.51152,-0.738011 0.51152,-1.207205 0,-0.469547 -0.16898,-0.86995 -0.51152,-1.202267 -0.33761,-0.337255 -0.75389,-0.506236 -1.24425,-0.506236 -0.4639,0 -0.86466,0.168981 -1.19698,0.500944 m 2.63631,-0.216252 c 0.39511,0.395464 0.59055,0.86995 0.59055,1.423811 0,0.5588 -0.19544,1.033286 -0.59055,1.42875 -0.39017,0.395464 -0.86466,0.590197 -1.42346,0.590197 -0.5535,0 -1.02834,-0.200025 -1.42345,-0.595489 -0.39547,-0.395464 -0.59585,-0.86995 -0.59585,-1.423458 0,-0.54857 0.20038,-1.023056 0.59585,-1.41852 0.39511,-0.395111 0.87489,-0.595489 1.43933,-0.595489 0.54822,0 1.01741,0.194734 1.40758,0.590198" />
</svg>