<svg id="Layer_1" data-name="Layer 1" xmlns="http://www.w3.org/2000/svg" viewBox="0 0 569.01512 220.67187">
  <g>
    <path d="M80.175,76.4358H1.44368v25.07028l51.31439.0003a5.74716,5.74716,0,0,1,5.747,5.747v44.39423H47.53839a5.747,5.747,0,0,1-5.747-5.74693V114.04185H20.12131A20.11436,20.11436,0,0,0,.0069,134.15626v22.44767a20.11439,20.11439,0,0,0,20.11441,20.11441h80.16812V96.55022A20.1144,20.1144,0,0,0,80.175,76.4358Z" style="fill: #0abf53"/>
    <path d="M175.49938,151.64759H164.5327a5.74714,5.74714,0,0,1-5.747-5.74693V76.43537H137.11748a20.11434,20.11434,0,0,0-20.11441,20.11436v60.0542a20.11437,20.11437,0,0,0,20.11441,20.11441h80.16813V34.65124H175.5008l-.00142,116.99635Z" style="fill: #0abf53"/>
    <path d="M292.49627,151.64759H281.52961a5.74713,5.74713,0,0,1-5.747-5.74693V76.43537H233.99926v80.16856a20.11437,20.11437,0,0,0,20.11441,20.11441h38.384v12.53512H235.436V218.497h78.73211a20.11442,20.11442,0,0,0,20.11441-20.11441V76.43537H292.49627v75.21222Z" style="fill: #0abf53"/>
    <path d="M431.16358,76.4358h-80.1674v80.16813a20.11437,20.11437,0,0,0,20.11439,20.11441h78.73068V151.64759h-51.3147a5.74715,5.74715,0,0,1-5.747-5.74693V101.50682h10.96671a5.74613,5.74613,0,0,1,5.74693,5.74693v31.8585h21.67041A20.11434,20.11434,0,0,0,451.278,118.99789V96.55022A20.11436,20.11436,0,0,0,431.16358,76.4358Z" style="fill: #0abf53"/>
    <path d="M548.16045,76.4358H467.99162V176.71834h41.78479V101.50608h10.9667a5.7639,5.7639,0,0,1,5.747,5.747v69.46529h41.78483V96.55022A20.11444,20.11444,0,0,0,548.16045,76.4358Z" style="fill: #0abf53"/>
  </g>
</svg>
