<svg xmlns="http://www.w3.org/2000/svg" viewBox="0 0 302.3 80.86" clip-rule="evenodd" fill-rule="evenodd" stroke-linejoin="round" stroke-miterlimit="2"><g fill-rule="nonzero"><path fill="#141432" d="M5.82 11.47c2.9 0 5.82-1.85 5.82-5.73C11.64 1.94 8.73 0 5.82 0S0 1.94 0 5.74c0 3.88 2.9 5.73 5.82 5.73zM2.9 56.84h5.82c1.29 0 2.02-.73 2.02-2.02v-35.9c0-1.29-.73-2.02-2.02-2.02H2.9c-1.3 0-2.02.73-2.02 2.02v35.9c0 1.3.73 2.02 2.02 2.02zM19.45 56.84h5.74c1.29 0 2.02-.73 2.02-2.02v-18.6c0-6.06 4.04-11.16 10.19-11.16 6.23 0 9.63 4.61 9.63 10.68v19.08c0 1.3.73 2.02 2.02 2.02h5.82c1.29 0 2.01-.73 2.01-2.02V35.65c0-12.53-7.5-19.56-16.9-19.56-5.09 0-8.97 1.54-13.1 5.98l-.4-3.3c-.16-1.3-.97-1.87-2.18-1.87h-4.85c-1.3 0-2.02.73-2.02 2.02v35.9c0 1.3.73 2.02 2.02 2.02zM75.58 57h7.27c1.13 0 1.94-.48 2.35-1.53l15.36-36.22c.56-1.38-.08-2.35-1.62-2.35h-6.47c-1.13 0-1.94.49-2.34 1.54l-4.85 11.8L79.2 46.9l-6.14-16.82-4.85-11.64c-.4-1.05-1.22-1.54-2.35-1.54h-6.46c-1.54 0-2.19.97-1.62 2.35l15.44 36.22c.4 1.05 1.21 1.53 2.35 1.53zM120.62 57.97c13.02 0 20.94-9.37 20.94-21.02 0-11.4-8.24-20.94-21.02-20.94-12.7 0-20.78 9.54-20.78 20.94 0 11.65 7.84 21.02 20.86 21.02zm0-9.2c-7.2 0-10.84-5.83-10.84-11.82 0-5.98 3.72-11.8 10.84-11.8 6.64 0 10.84 5.82 10.84 11.8 0 5.99-3.64 11.82-10.84 11.82zM150.59 11.47c2.9 0 5.81-1.85 5.81-5.73 0-3.8-2.9-5.74-5.81-5.74-2.91 0-5.82 1.94-5.82 5.74 0 3.88 2.9 5.73 5.81 5.73zm-2.91 45.37h5.81c1.3 0 2.02-.73 2.02-2.02v-35.9c0-1.29-.72-2.02-2.02-2.02h-5.81c-1.3 0-2.02.73-2.02 2.02v35.9c0 1.3.72 2.02 2.02 2.02zM181.03 58.06c5.18 0 9.54-1.38 13.67-4.77 1.13-.97 1.13-2.1.16-2.99l-3.72-3.64c-.9-.89-1.78-.89-2.83-.16a12.34 12.34 0 01-7.28 2.1c-6.15 0-11.32-3.88-11.32-11.48 0-6.96 4.77-11.82 11.48-11.82 2.27 0 4.45.65 6.47 1.95 1.05.72 1.94.8 2.83-.17l3.56-3.72c.89-.96.89-1.93-.16-2.82C190 17.3 186.13 16 181.03 16c-11.56 0-21.18 6.87-21.18 21.1 0 14.08 9.62 20.95 21.18 20.95zM204.04 11.47c2.91 0 5.82-1.85 5.82-5.73 0-3.8-2.9-5.74-5.82-5.74-2.9 0-5.81 1.94-5.81 5.74 0 3.88 2.9 5.73 5.81 5.73zm-2.9 45.37h5.81c1.3 0 2.02-.73 2.02-2.02v-35.9c0-1.29-.72-2.02-2.02-2.02h-5.81c-1.3 0-2.02.73-2.02 2.02v35.9c0 1.3.72 2.02 2.02 2.02zM217.68 56.84h5.73c1.3 0 2.02-.73 2.02-2.02v-18.6c0-6.06 4.05-11.16 10.2-11.16 6.23 0 9.63 4.61 9.63 10.68v19.08c0 1.3.72 2.02 2.02 2.02h5.81c1.3 0 2.02-.73 2.02-2.02V35.65c0-12.53-7.51-19.56-16.9-19.56-5.09 0-8.97 1.54-13.1 5.98l-.4-3.3c-.16-1.3-.97-1.87-2.18-1.87h-4.85c-1.3 0-2.02.73-2.02 2.02v35.9c0 1.3.73 2.02 2.02 2.02zM280.55 80.86c10.68 0 21.75-5.5 21.75-16.82 0-3.88-1.45-9.94-9.85-12.93 6.54-3 9.85-7.85 9.85-14.97 0-4.12-1.13-7.76-4.6-11.89l3.63-4.2c.9-.97.73-2.1-.32-2.9l-3.96-3c-.97-.72-2.02-.72-2.83.33L291 18.44c-2.75-1.86-7.2-2.5-10.27-2.5-11.17 0-21.83 6.78-21.83 20.2 0 12.54 8.64 20.06 21.83 20.06 7.44 0 11.32 2.99 11.32 7.84 0 4.94-5.98 7.29-11.49 7.29-5.5 0-10.68-2.6-11.57-6.88-.32-1.3-.88-1.94-2.1-1.94h-5.81c-1.3 0-2.1.73-2.02 2.02.56 10.19 8.48 16.33 21.5 16.33zm.16-33.71c-6.47 0-11.97-4.05-11.97-11 0-7.45 5.5-11.09 11.97-11.09 6.48 0 11.74 4.29 11.74 11.08 0 6.8-5.26 11-11.74 11z"/></g></svg>