<svg xmlns="http://www.w3.org/2000/svg" viewBox="0 0 600 134"><path d="M582.9 99.2a17.1 17.1 0 100 34.2 17.1 17.1 0 100-34.2M526.8 46.4v-5.8H554v90.9h-27.2v-5.8a48.01 48.01 0 11-27-87.7c10.1 0 19.3 3.1 27 8.4zm-24.7 63c13.6 0 24.7-10.5 24.7-23.4 0-12.9-11-23.4-24.7-23.4-13.6 0-24.7 10.5-24.7 23.4 0 12.9 11.1 23.4 24.7 23.4zM403.5 38.1c-10.9 0-21.2 3.4-28 12.7V40.6h-27.1v90.9h27.4V83.7c0-13.8 9.3-20.6 20.4-20.6 12 0 18.8 7.1 18.8 20.4v48h27.2V73.7c.1-21.2-16.7-35.6-38.7-35.6M309 52.4V40.6h-27.9v90.9H309V89c0-14.3 15.5-22 26.3-22h.3V40.6c-10.9 0-21.1 4.7-26.6 11.8M239.7 46.4v-5.8h27.2v90.9h-27.2v-5.8a48.01 48.01 0 11-27-87.7c10.1 0 19.3 3.1 27 8.4zm-24.7 63c13.6 0 24.7-10.5 24.7-23.4 0-12.9-11-23.4-24.7-23.4-13.6 0-24.7 10.5-24.7 23.4 0 12.9 11.1 23.4 24.7 23.4zM125.1 131.5h28.5V.1h-28.5zM105.5 0H76c0 24.2-11.1 46.4-30.5 60.9l-11.7 8.8 45.3 61.8h37.3L74.7 74.6C94.4 55 105.5 28.5 105.5 0M0 131.5h30.2V0H0z"/></svg>