<svg viewBox="0 0 284 83" xmlns="http://www.w3.org/2000/svg" fill-rule="evenodd" clip-rule="evenodd" stroke-linejoin="round" stroke-miterlimit="2"><path d="M1.3 81.59c-.82 0-1.3-.48-1.3-1.31v-55.2c0-.71.24-1.3.95-1.66a59.3 59.3 0 0122.84-4.64c15.94 0 26.76 7.5 26.76 25.7v35.8c0 .83-.47 1.3-1.42 1.3H42.1c-.83 0-1.31-.47-1.31-1.3V44.7c0-12.37-6.3-17.13-17.01-17.13-5 0-10.35.95-14.04 2.14v50.56c0 .83-.47 1.3-1.42 1.3H1.3zM89.45 27.58c-8.92 0-15.35 4.64-15.35 14.87v5h30.7v-5c0-10.11-6.67-14.87-15.35-14.87m24.86 26.53c0 .95-.48 1.43-1.31 1.43H74.1v5c0 8.91 6.66 13.67 15.47 13.67 8.2 0 13.8-3.21 18.2-6.66.71-.48 1.42-.36 1.9.36l3.45 4.52c.6.71.47 1.3-.24 1.9a35.46 35.46 0 01-23.55 8.56c-12.85 0-25.1-7.37-25.1-22.36V42.45c0-16.3 12.13-23.67 25.22-23.67 12.96 0 24.86 7.37 24.86 23.67v11.66zM148.8 73.85c1.3 0 3.57-.12 5.7-.23.96 0 1.44.47 1.44 1.3v6.3c0 .72-.36 1.32-1.2 1.44-2.13.11-4.87.23-6.42.23-11.9 0-20.7-6.42-20.7-21.05V6.41c0-.95.48-1.43 1.43-1.43h6.19c.71 0 1.19.48 1.3 1.31l.84 14.4h15.46c.84 0 1.31.47 1.31 1.3v5.95c0 .95-.47 1.43-1.3 1.43h-15.47v32c0 7.84 4.04 12.48 11.42 12.48M186.27 82.9c-8.21 0-16.42-2.39-23.56-7.62-.71-.47-.71-1.19-.35-1.9l3.2-5.47c.49-.84 1.08-.95 1.91-.36 5.71 4.28 12.25 6.66 19.03 6.66 7.97 0 14.04-3.33 14.04-9.51 0-6.67-7.37-8.21-14.04-9.52-8.56-1.79-23.19-5.12-23.19-18.91 0-12.14 11.54-17.49 23.43-17.49 7.5 0 14.16 1.9 20.7 5.6.83.35.95 1.06.48 1.78l-3.22 5.35c-.35.71-1.07.95-1.78.47a35.79 35.79 0 00-16.65-4.4c-8.33 0-13.33 3.33-13.33 8.69 0 6.54 7.02 8.32 15.47 9.99 9.51 1.9 22 4.64 22 17.96 0 12.13-10.23 18.67-24.14 18.67" fill="#005776" fill-rule="nonzero"/><path d="M255.78 13.83a13.83 13.83 0 11-27.66 0 13.83 13.83 0 0127.66 0M280.15 13.83a8.85 8.85 0 11-17.7 0 8.85 8.85 0 0117.7 0M283.46 43.1a12.17 12.17 0 11-24.34 0 12.17 12.17 0 0124.34 0M252.46 72.38a10.51 10.51 0 11-21.02 0 10.51 10.51 0 0121.02 0" fill="#00bef0" fill-rule="nonzero"/></svg>