<svg xmlns="http://www.w3.org/2000/svg" version="1.0" viewBox="0 0 1362 531"><path d="M138 1.5c-36 5-69.1 21.9-94.4 48.6C23 71.8 9.4 97.8 3 127.7.2 140.5-.7 166 1 179.6c4.7 37.6 21 69.9 48.8 96.5 21.5 20.7 47.9 34.5 78.5 41.1 14 3 45.2 3.2 60.2.4C283.6 299.9 341 204.7 312.4 112 308 97.6 299 79.3 290.2 67c-8.6-12.1-25.1-28.6-37.2-37.3C220.1 6.3 178.1-4 138 1.5zm48.2 54.4c41.2 11.2 72.1 44.7 79.3 86 8.6 49.1-19.1 98.8-65.6 117.7-32.3 13.1-70.2 9.2-99.7-10.3-7.5-5-20.2-17.2-26.4-25.3-6.4-8.4-15.2-26.3-17.8-36.5-6.4-24.7-4.1-49.7 6.5-72.2 14.6-30.9 42.3-53.1 75.5-60.4 11.7-2.6 36.9-2 48.2 1zM443 95.5c-16.1 3.2-31.8 10.9-42.6 20.8l-6.4 5.9V96h-47v320h47V293l7.3 6.1c8.6 7.2 23.9 15.1 35.2 18 10.3 2.7 31.1 3.6 42.5 2 29.9-4.4 54.8-19.2 71.2-42.5 13.8-19.6 20.2-41.1 20.2-68.1 0-21.6-3.8-39.1-12.1-55.5-15.4-30.4-41.1-50.4-73-56.9-11.8-2.4-31.8-2.7-42.3-.6zm30 44.1c17.5 4.1 33.9 17.1 41.8 33.4 6.4 13 7.7 19.1 7.7 36 0 13.6-.2 15-3.1 23.1-1.7 4.8-5.2 11.8-7.8 15.7-25.1 37.8-82.9 37.5-107.8-.7-7.1-10.9-10-20.7-10.5-36.1-.4-10.4-.1-14 1.6-21.3 6-25.4 23.1-43.6 46.5-49.7 8.8-2.3 22.7-2.5 31.6-.4zM686.9 95c-22.2 3.8-42 14.1-57.5 30.2-15.8 16.3-24.8 33.6-30 57.8-2.5 11.6-2.5 37.9-.1 50.3 5.9 29.3 21.7 53.7 45.2 69.4 18.4 12.3 40.4 18.1 64.9 17 25.2-1.1 43.6-8.3 59.4-23l5.2-5V318h46V96h-47v26.2l-5.4-4.9c-17.4-15.9-37.9-23.4-63.6-23.2-6.9.1-14.6.5-17.1.9zm37.6 44.5c15.4 4 30.7 15.1 38.4 28 7.6 12.6 11.9 30.9 10.7 45.9-2.2 28.8-18 50.5-43.1 59.3-7.2 2.5-9.3 2.8-21 2.7-11.5 0-13.9-.3-20.9-2.7-17.8-6.2-29.8-16.9-37.4-33.4-8.9-19.4-8.3-45.8 1.5-66.1 4.8-9.8 17.7-23.2 27-28 12.8-6.7 31.6-9.1 44.8-5.7zM1157.9 95.5c-47.4 9-83.9 47.3-91 95.5-1.8 12.4-.7 32.1 2.5 44.5 5.2 20.2 18.9 42.8 33.9 55.8 13.6 11.8 30.4 20.9 47.4 25.4 8.9 2.4 11.5 2.6 28.3 2.7 17 0 19.3-.2 28.5-2.7 13.5-3.6 31.7-12.8 42.4-21.3 19.4-15.6 33-37 39.2-61.5 3.2-12.8 3.7-35.3 1.1-48.5-8.7-43.9-39.9-76.8-84.2-88.6-10-2.7-37-3.4-48.1-1.3zm43.2 46.2c39.1 13.6 57.8 57.8 40.1 94.8-13.8 28.7-46 44.6-76.5 37.9-9.1-2-21.5-7.9-28.9-13.9-15.6-12.3-25.8-33.7-25.8-53.7.1-31 21.7-58.6 52.2-66.8 11.2-3.1 27.4-2.3 38.9 1.7zM844 96.8c0 1.5 85.9 190.7 86.7 190.9.4.2 5.9-12.5 12.2-28.1l11.4-28.4-30.4-67.6L893.5 96h-24.7c-13.7 0-24.8.4-24.8.8zM954.4 255.1c-35.1 87.6-64 159.6-64.2 160-.2.5 11.2.9 25.5.9h25.9l64.2-159.3c35.3-87.5 64.2-159.5 64.2-160 0-.4-11.6-.7-25.9-.7h-25.8z" fill="#0c2074"/><path d="M991 469v48h67v-12h-53v-32h49v-11h-49v-29h53v-12h-67zM1070 469v48h12v-96h-12zM1118.5 446c-12.8 2-19.9 8.2-21.9 19.2l-.7 3.8h6.6c6.1 0 6.5-.1 6.5-2.3 0-3.1 2.5-6.4 6.3-8.4 4.3-2.2 15.2-2.2 19.3 0 5.8 3 6.9 11 2 14.2-1.3.9-7.5 2.4-13.7 3.5-17.9 3-22.6 5.1-26.8 12.1-2.5 4.1-2.9 14.2-.7 19.2 3 7 10.4 10.7 21.7 10.7 7.8 0 14.7-2.2 20.3-6.5 3.5-2.7 3.6-2.7 3.6-.6 0 3.8 4.3 7.1 9.2 7.1 8 0 8.8-.6 8.8-6.1 0-4.7-.1-4.9-2.9-4.9-1.7 0-3.1-.6-3.5-1.6-.3-.9-.6-11.4-.6-23.5 0-24.2-.4-26.6-5.9-31.2-5-4.2-17.4-6.3-27.6-4.7zm21.5 41.5c0 6.8-1.8 11.3-5.8 14.7-4.4 3.7-9.4 5.1-16.3 4.6-7.7-.6-10.9-3.3-10.9-9.3 0-7.3 4.8-10.6 18.8-12.5 4.6-.6 9.3-1.5 10.5-2 3.6-1.4 3.7-1.2 3.7 4.5zM1251.8 446c-5.9 1-14.2 5.5-17.4 9.3-9.3 11.1-11.6 30-5.4 44.6 3 6.8 11 14.1 18 16.4 10.9 3.5 25.1 1.5 33.2-4.6 16.4-12.4 17.2-44.1 1.6-58.2-7.2-6.5-19-9.5-30-7.5zm16.3 12.6c12.3 6.2 15.8 28.7 6.4 41.1-4.8 6.2-14.8 9-22.2 6.2-3.4-1.3-9-6.4-10.9-10.2-4.3-8.2-3.7-21.4 1.4-29.7 5.4-8.7 16.4-11.9 25.3-7.4zM1331.1 446c-4.7 1-8.1 2.9-12.3 6.8l-2.8 2.6V447h-12v70h11.9l.3-22.8c.3-22.1.4-22.9 2.9-27.7 5.8-11.5 22.2-13.6 28.6-3.8 1.6 2.4 1.8 5.9 2.1 28.5l.3 25.8h11.9v-25c0-26.3-.7-32.8-4.3-38.2-4.2-6.3-16.4-9.9-26.6-7.8zM1160 448.1c0 .9 18.7 52.1 24.5 67.1.6 1.5 1.9 1.8 7 1.8h6.3l2.6-6.8c6.4-17.1 22.6-61.7 22.6-62.4 0-.4-2.8-.8-6.3-.8h-6.3l-8.9 27.5c-5 15.1-9.2 27.5-9.5 27.5-.3 0-4.6-12.3-9.6-27.3l-9-27.2-6.7-.3c-4.6-.2-6.7.1-6.7.9zM896 490.5V516h15.3c13.3 0 15.6-.2 18.4-2 4.3-2.6 6.3-6.8 6.3-13.1 0-4.5-.4-5.5-3.6-8.7-2-2-3.1-3.8-2.5-4 2-.7 4.1-6 4.1-10.6 0-5.5-3.5-10.1-8.8-11.6-2-.5-9.4-1-16.4-1H896zm28.1-16.7c3 2.5 3 7.5 0 10.5-1.8 1.9-3.5 2.3-11.1 2.5l-9 .4V472h8.9c7.1 0 9.3.4 11.2 1.8zm1.1 21.4c4.9 3.2 4.2 10.8-1.2 13.5-1.4.7-6.2 1.3-11.2 1.3H904v-17.2l9.4.4c6.4.3 10.1.9 11.8 2zM938.9 483.7c1 2.6 4.2 10.6 7.1 17.8 4.1 10.2 5 13.6 4.5 16.3-.8 4.6-3.8 7.4-7 6.6-2.3-.6-2.5-.4-2.5 3 0 3.6 0 3.6 4.3 3.6 4.6-.1 6.5-1.1 9-5 1.7-2.7 17.7-44.2 17.7-45.9 0-.6-1.5-1.1-3.4-1.1h-3.4l-4.8 13.9c-2.7 7.7-5.1 13.8-5.3 13.6-.2-.2-2.5-6.4-5.1-13.7l-4.8-13.3-4.1-.3-4.1-.3z" fill="#2b2624"/><path d="M1138.4 440.7c122.7-97.99 192.33-78.78 166.65.08 0 0 35.1-72-22.75-74.78-60.45-3.72-133.81 61.94-143.9 74.7z" fill="#0c2074"/><path d="M1207.45 439.86c14-23.99 39.33-70.93 60.3-87.74 5.25-4.2 4.81-4.03 11.98-4.03 4.1.01 7.47-.2 10.06 3.34 6.7 9.15 6.9 35.32-8.37 95.22-7.53-4.61-12.52-7-22.28-5.77 20.83-26.23 29.05-87.87 18.89-87.91-10.28-.85-48.1 55.83-70.58 86.9z" fill="#007cbe"/><path d="M1243.7 379.03l9.75-2.53 7.57-9.21-9.49 2.02z" fill="#0c2074"/></svg>