<svg xmlns="http://www.w3.org/2000/svg" viewBox="0 0 54 54"><title>Our Umbraco</title><path d="M 27,0 A 27,27 0 0 0 0,27 27,27 0 0 0 27,54 27,27 0 0 0 54,27 27,27 0 0 0 27,0 Z m -6.59961,14 c 2.70047,0 4.76269,1.26675 6.06055,2.51562 0.201,0.19342 0.28874,0.3513 0.45898,0.54102 0.16695,-0.18 0.25056,-0.32816 0.44531,-0.51172 C 28.69345,15.29304 30.78095,14 33.5,14 c 3.08667,0 5.58256,1.44426 7.12891,3.35352 1.54401,1.90638 2.26753,4.2038 2.26953,6.33593 0.0546,5.7362 -3.61803,10.25835 -7.21485,13.32032 -1.79949,1.53191 -3.61711,2.72314 -5.09961,3.55273 -0.74125,0.4148 -1.39554,0.73838 -1.94921,0.97461 -0.27684,0.11812 -0.52578,0.21407 -0.77539,0.29297 C 27.60976,41.90898 27.43372,42 26.90039,42 26.36706,42 26.18696,41.9077 25.9375,41.82812 25.68804,41.74852 25.44078,41.65177 25.16602,41.5332 24.61648,41.29606 23.96924,40.97196 23.23633,40.55664 21.77051,39.72601 19.9749,38.53595 18.19531,37.00391 14.63615,33.93981 11,29.42207 11,23.69922 11,21.56437 11.72514,19.26277 13.27148,17.35352 14.81783,15.44426 17.31372,14 20.40039,14 Z m 0,4 c -1.91333,0 -3.11783,0.75535 -4.02148,1.87109 C 15.47525,20.98684 15,22.53407 15,23.69922 c 0,3.97715 2.71385,7.61253 5.80469,10.27344 1.54541,1.33045 3.14941,2.39352 4.40234,3.10351 0.62647,0.355 1.16828,0.62347 1.54297,0.78516 0.0705,0.0305 0.0951,0.036 0.15234,0.0586 0.0602,-0.0234 0.0871,-0.0305 0.16211,-0.0625 0.38109,-0.16259 0.9311,-0.42964 1.56641,-0.78515 1.27062,-0.71104 2.89793,-1.77684 4.46094,-3.10743 3.12601,-2.66118 5.84939,-6.28527 5.80859,-10.24414 v -0.01 -0.0117 c 0,-1.16515 -0.47525,-2.71238 -1.37891,-3.82813 C 36.61783,18.75535 35.41333,18 33.5,18 c -1.48095,0 -2.54384,0.65696 -3.39062,1.45508 -1.09933,1.20631 -2.04286,2.66148 -3.18555,4.14453 C 25.98027,22.3821 24.8866,20.73775 23.6875,19.39648 22.88536,18.62462 21.89992,18 20.40039,18 Z" /></svg>