<?xml version="1.0" encoding="utf-8"?>
<!-- Generator: Adobe Illustrator 24.1.2, SVG Export Plug-In . SVG Version: 6.00 Build 0)  -->
<svg version="1.1" id="Layer_1" xmlns="http://www.w3.org/2000/svg" xmlns:xlink="http://www.w3.org/1999/xlink" x="0px" y="0px"
	 viewBox="0 0 2269.3 575.6" style="enable-background:new 0 0 2269.3 575.6;" xml:space="preserve">
<style type="text/css">
	.st0{fill:#003087;}
	.st1{fill:#009CDE;}
	.st2{fill:#012169;}
</style>
<g>
	<path class="st0" d="M415.3,43.4C388.7,13,340.5,0,278.9,0H100C87.4,0,76.6,9.2,74.7,21.6L0.2,494c-1.3,8.4,4.4,16.2,12.8,17.5
		c0.8,0.1,1.6,0.2,2.4,0.2h110.4l27.7-175.9l-0.9,5.5c1.9-12.4,12.6-21.6,25.2-21.6h52.5c103.1,0,183.8-41.9,207.4-163
		c0.7-3.6,1.3-7.1,1.8-10.5C446.6,101.5,439.5,71,415.3,43.4"/>
	<path class="st1" d="M1767.3,268.2c-6.8,44.3-40.6,44.3-73.3,44.3h-18.6l13.1-82.8c0.8-5,5.1-8.7,10.2-8.7h8.5
		c22.3,0,43.3,0,54.2,12.7C1767.7,241.4,1769.7,252.6,1767.3,268.2 M1753,152.5h-123.5c-8.4,0-15.6,6.1-17,14.5l-49.9,316.6
		c-0.9,5.6,3,10.9,8.6,11.8c0.5,0.1,1,0.1,1.6,0.1h63.4c5.9,0,10.9-4.3,11.9-10.1l14.2-89.8c1.3-8.3,8.5-14.5,16.9-14.5h39.1
		c81.4,0,128.3-39.3,140.6-117.4c5.5-34.1,0.2-60.9-15.7-79.7C1825.5,163.5,1794.3,152.5,1753,152.5"/>
	<path class="st0" d="M886.5,268.2c-6.8,44.3-40.6,44.3-73.4,44.3h-18.6l13.1-82.8c0.8-5,5.1-8.7,10.2-8.7h8.5
		c22.3,0,43.3,0,54.2,12.7C887,241.4,888.9,252.6,886.5,268.2 M872.2,152.5H748.7c-8.4,0-15.6,6.1-17,14.5l-49.9,316.6
		c-0.9,5.6,2.9,10.9,8.6,11.8c0.5,0.1,1.1,0.1,1.6,0.1h59c8.4,0,15.6-6.1,16.9-14.5l13.5-85.4c1.3-8.3,8.5-14.5,16.9-14.5h39.1
		c81.4,0,128.3-39.4,140.6-117.4c5.5-34.1,0.2-60.9-15.7-79.7C944.7,163.5,913.6,152.5,872.2,152.5 M1158.9,381.9
		c-5.7,33.8-32.5,56.5-66.7,56.5c-17.1,0-30.9-5.5-39.7-16c-8.8-10.3-12-25.1-9.3-41.5c5.3-33.5,32.6-56.9,66.3-56.9
		c16.8,0,30.4,5.6,39.4,16.1C1157.9,350.7,1161.5,365.5,1158.9,381.9 M1241.3,266.8h-59.1c-5.1,0-9.4,3.7-10.2,8.7l-2.6,16.5l-4.1-6
		c-12.8-18.6-41.3-24.8-69.8-24.8c-65.3,0-121.1,49.5-132,118.9c-5.7,34.7,2.4,67.8,22,90.9c18,21.2,43.8,30.1,74.5,30.1
		c52.7,0,81.9-33.8,81.9-33.8l-2.6,16.4c-0.9,5.6,2.9,10.9,8.6,11.8c0.5,0.1,1.1,0.1,1.6,0.1h53.2c8.4,0,15.6-6.1,17-14.5l32-202.4
		c0.9-5.6-3-10.9-8.6-11.8C1242.4,266.8,1241.9,266.8,1241.3,266.8"/>
	<path class="st1" d="M2039.7,381.9c-5.7,33.8-32.5,56.5-66.7,56.5c-17.1,0-30.9-5.5-39.7-16c-8.8-10.3-12-25.1-9.3-41.5
		c5.3-33.5,32.6-56.9,66.3-56.9c16.8,0,30.4,5.6,39.4,16.1C2038.7,350.7,2042.3,365.5,2039.7,381.9 M2122.1,266.8H2063
		c-5.1,0-9.4,3.7-10.2,8.7l-2.6,16.5l-4.1-6c-12.8-18.6-41.3-24.8-69.8-24.8c-65.3,0-121.1,49.5-132,118.9
		c-5.7,34.7,2.4,67.8,22,90.9c18,21.2,43.8,30.1,74.5,30.1c52.7,0,81.9-33.8,81.9-33.8l-2.6,16.4c-0.9,5.6,2.9,10.9,8.5,11.8
		c0.5,0.1,1.1,0.1,1.7,0.1h53.2c8.4,0,15.6-6.1,17-14.5l32-202.4c0.9-5.6-3-10.9-8.6-11.8C2123.2,266.8,2122.6,266.8,2122.1,266.8"
		/>
	<path class="st0" d="M1556.3,266.8h-59.5c-5.7,0-11,2.8-14.2,7.5l-82,120.7l-34.8-116c-2.2-7.3-8.9-12.2-16.4-12.3H1291
		c-5.7,0-10.3,4.6-10.3,10.3c0,1.1,0.2,2.3,0.6,3.3l65.4,192.1l-61.6,86.9c-3.3,4.6-2.2,11.1,2.5,14.4c1.7,1.2,3.8,1.9,5.9,1.9h59.4
		c5.6,0,10.9-2.8,14.1-7.4l197.7-285.3c3.2-4.7,2.1-11.1-2.6-14.3C1560.4,267.4,1558.4,266.8,1556.3,266.8"/>
	<path class="st1" d="M2191.8,161.3l-50.7,322.4c-0.9,5.6,3,10.9,8.6,11.8c0.5,0.1,1.1,0.1,1.6,0.1h51c8.4,0,15.6-6.1,17-14.5
		l50-316.6c0.9-5.6-2.9-10.9-8.6-11.8c-0.5-0.1-1.1-0.1-1.6-0.1h-57C2196.9,152.5,2192.6,156.2,2191.8,161.3"/>
	<path class="st0" d="M415.3,43.4C388.7,13,340.5,0,278.9,0H100C87.4,0,76.6,9.2,74.7,21.6L0.2,494c-1.3,8.4,4.4,16.2,12.8,17.5
		c0.8,0.1,1.6,0.2,2.4,0.2h110.4l27.7-175.9l-0.9,5.5c1.9-12.4,12.6-21.6,25.2-21.6h52.5c103.1,0,183.8-41.9,207.4-163
		c0.7-3.6,1.3-7.1,1.8-10.5C446.6,101.5,439.5,71,415.3,43.4"/>
	<path class="st0" d="M183.3,146.8c1.7-10.9,11.1-18.9,22.1-18.9h140.2c16.6,0,32.1,1.1,46.3,3.3c7.7,1.2,15.4,3,22.9,5.1
		c8.6,2.4,16.8,5.7,24.7,9.8c7-44.8,0-75.2-24.2-102.9C388.6,13,340.5,0,278.9,0H100C87.4,0,76.6,9.2,74.7,21.6L0.2,494
		c-1.3,8.4,4.4,16.2,12.8,17.6c0.8,0.1,1.6,0.2,2.4,0.2h110.4l27.7-175.9L183.3,146.8z"/>
	<path class="st1" d="M439.6,146.2c-0.5,3.5-1.2,7-1.8,10.5c-23.6,121.1-104.3,163-207.4,163h-52.5c-12.6,0-23.3,9.2-25.2,21.6
		l-26.9,170.4l-7.6,48.3c-1.2,7.3,3.8,14.2,11.2,15.4c0.7,0.1,1.4,0.2,2.1,0.2h93.1c11,0,20.4-8,22.1-18.9l0.9-4.7l17.5-111.2
		l1.1-6.1c1.7-10.9,11.1-18.9,22.1-18.9h13.9c90.2,0,160.8-36.6,181.4-142.6c8.6-44.3,4.1-81.2-18.6-107.2
		C457.8,157.9,449.2,151.2,439.6,146.2"/>
	<path class="st2" d="M414.9,136.4c-3.6-1.1-7.3-2-11.1-2.9c-3.8-0.8-7.8-1.6-11.8-2.2c-14.2-2.3-29.6-3.4-46.3-3.4H205.5
		c-11,0-20.4,8-22.1,18.9l-29.8,189l-0.9,5.5c1.9-12.4,12.6-21.6,25.2-21.6h52.5c103.1,0,183.8-41.9,207.4-163
		c0.7-3.6,1.3-7.1,1.8-10.5c-6.2-3.3-12.7-6-19.4-8.2C418.5,137.5,416.7,136.9,414.9,136.4"/>
</g>
</svg>
