<?xml version="1.0" encoding="utf-8"?>
<!-- Generator: Adobe Illustrator 24.1.2, SVG Export Plug-In . SVG Version: 6.00 Build 0)  -->
<svg version="1.1" id="Logo" xmlns="http://www.w3.org/2000/svg" xmlns:xlink="http://www.w3.org/1999/xlink" x="0px" y="0px"
	 viewBox="0 0 1615.9 331.9" style="enable-background:new 0 0 1615.9 331.9;" xml:space="preserve">
<style type="text/css">
	.st0{fill:#194B84;}
	.st1{fill:#1FA97D;}
</style>
<g>
	<path class="st0" d="M159.9,2.4C154.6,0.8,148.6,0,141.8,0c-14.4,0-27.4,3.5-38.9,10.4S83,27.6,77.7,41.1L72,5.7H0v233.2
		c9.4,0.5,49.2,0.2,87.9-34.6v-69c0-18.6,4.1-32.5,12.2-42c8.1-9.4,21.3-14.1,39.6-14.1H168V5.4C167.8,5,165.2,4,159.9,2.4z"/>
	<path class="st0" d="M455.5,122.4c0-41.2-11.3-71.9-33.8-91.9s-55.2-30-97.9-30c-41,0-73.1,10.3-96.3,30.9
		c-23.3,20.6-34.9,51-34.9,91c0,41,11.9,71.5,35.8,91.7s57.4,30.3,100.8,30.3c41.2,0,72.6-8,94.1-23.9c21.5-15.9,32.3-38,32.3-66.3
		h-85.3c0,10.3-3.5,18.6-10.4,24.8c-6.9,6.2-17.7,9.3-32.5,9.3c-16.2,0-28.1-4.3-35.6-12.8s-11.3-21.2-11.3-38h175V122.4z M281,95.9
		c3.2-26.2,18.7-39.3,46.4-39.3c12.4,0,22,3.5,28.9,10.6s10.4,16.6,10.4,28.7L281,95.9L281,95.9z"/>
	<path class="st0" d="M750.3,122.4c0-41.2-11.3-71.9-33.8-91.9s-55.2-30-97.9-30c-41,0-73.1,10.3-96.3,30.9
		c-23.3,20.6-34.9,51-34.9,91c0,41,11.9,71.5,35.8,91.7c23.9,20.2,57.4,30.3,100.8,30.3c41.2,0,72.6-8,94.1-23.9
		c21.5-15.9,32.3-38,32.3-66.3h-85.3c0,10.3-3.5,18.6-10.4,24.8c-6.9,6.2-17.7,9.3-32.5,9.3c-16.2,0-28.1-4.3-35.6-12.8
		s-11.3-21.2-11.3-38h175L750.3,122.4L750.3,122.4z M575.7,95.9c3.2-26.2,18.7-39.3,46.4-39.3c12.4,0,22,3.5,28.9,10.6
		s10.4,16.6,10.4,28.7L575.7,95.9L575.7,95.9z"/>
	<path class="st1" d="M1019.4,31.3C1002.3,10.7,978,0.4,946.5,0.4c-32.4,0-57.2,12.8-74.2,38.5l-7.5-33.1h-71.6v320.4h87.9V217.8
		c16.5,17.7,38.3,26.5,65.4,26.5c31.5,0,55.8-10.2,72.9-30.7s25.6-50.7,25.6-90.8C1045.1,82.4,1036.5,51.9,1019.4,31.3z
		 M957.1,133.9c0,30.4-12.7,45.5-38,45.5c-13,0-22.7-4.6-29.2-13.9s-9.7-21.3-9.7-36v-14.6c0-14.7,3.2-26.7,9.7-35.8
		c6.5-9.1,16.2-13.7,29.2-13.7c25.3,0,38,15,38,45.1V133.9z"/>
	<path class="st1" d="M1337.6,184.7c-4.7,0-8.2-1.6-10.6-4.9c-2.4-3.2-3.5-7.4-3.5-12.4v-91c0-26.8-11.2-46.2-33.6-58.1
		s-51.4-17.9-87.1-17.9c-39.2,0-69.3,6.5-90.4,19.4c-21.1,13-31.6,30.5-31.6,52.6c0,2.6,0.1,4.7,0.4,6.2h86.6v-1.8
		c0-7.1,3.3-12.2,9.9-15.5c6.6-3.2,14.5-4.9,23.7-4.9c10,0,18.2,2.4,24.5,7.1s9.5,11.7,9.5,20.8v11.5c-37.1,0-67.2,2.2-90.2,6.6
		s-40.6,12.6-52.8,24.5c-12.2,11.9-18.3,29.2-18.3,51.9c0,43.6,27.4,65.4,82.2,65.4c18.6,0,34.8-2.6,48.6-8
		c13.8-5.3,26.4-12.4,37.6-21.2c4.1,9.1,11.7,16.3,22.8,21.4c11.1,5.1,25.1,7.7,42.2,7.7c8.8,0,16.6-0.7,23.4-2s12-2.7,15.7-4
		s6-2.3,6.8-2.9v-50.8h-15.8V184.7z M1235.5,157.3c0,9.1-4.4,16.8-13,23c-8.7,6.2-18.8,9.3-30.3,9.3c-20,0-30.1-7.4-30.1-22.1
		c0-9.1,6-16.4,17.9-21.9s30.4-8.2,55.5-8.2V157.3z"/>
	<path class="st1" d="M1539.1,6l-41,154.8h-3.1L1450.4,5.7h-94.6l92.8,233.3c-4.1,21.5-17.2,32.3-39.3,32.3h-35.4v52.6
		c14.7,5.3,31.7,8,50.8,8c31.5,0,56.1-8.5,73.6-25.4s32.3-41.8,44.4-74.5l73.2-199.4C1582.1,7,1549.4,5.7,1539.1,6z"/>
</g>
</svg>
