<svg xmlns="http://www.w3.org/2000/svg" viewBox="0 0 600.1 146.4"><path d="M122.1 0H24.4C11 0 0 11 0 24.4V122c0 13.4 11 24.4 24.4 24.4H122c13.4 0 24.4-11 24.4-24.4V24.4C146.5 10.9 135.5 0 122.1 0zm-2.3 112c0 4.3-3.5 7.7-7.8 7.7H34.4c-4.3 0-7.8-3.5-7.8-7.7V34.3c0-4.3 3.5-7.8 7.8-7.8h77.7c4.3 0 7.8 3.5 7.8 7.8zM93.2 88.7c0 2.4-2 4.4-4.4 4.4H57.7c-2.4 0-4.4-2-4.4-4.4V57.6c0-2.4 2-4.4 4.4-4.4h31.1c2.4 0 4.4 2 4.4 4.4v31.1zm121 32.5c-8.7 0-17-3.3-22.9-9.2-5.2-5.2-8.2-12-8.2-19.2h8.8c0 4.8 2 9.4 5.6 12.9 4.2 4.2 10.3 6.6 16.7 6.6h.1c12.3 0 22.2-8.6 22.2-19.1 0-7.9-4.4-14.2-25.7-19.1-8.7-2-14.5-4.7-18.4-8.4-4.1-4-6.2-9.4-6.2-16.3 0-13.8 12.3-25 27.5-25 7.3 0 14.1 2.5 19.3 7 5.3 4.7 8.3 11 8.3 17.8h-8.8c0-8.9-8.4-16.1-18.8-16.1-10.2 0-18.7 7.4-18.7 16.2 0 8 2.8 12.7 17.8 16.2 16 3.7 32.4 9.9 32.5 27.7 0 7.6-3.3 14.6-9.2 19.9-5.8 5.3-13.6 8.1-21.9 8.1zm103.6 25v-38.5h-.2c-5.7 8.7-15.5 13.2-25.9 13.2-19.9 0-35.7-14.9-35.7-35 0-19.9 16.2-34.7 35.7-34.7 10.3 0 20.2 4.5 25.9 13.4h.2V52.9h8.5v93.3zm-26.1-87.3c-15.8 0-27.2 11.8-27.2 27.4 0 15.5 11.6 27 27.2 27 15.1 0 26.6-12.3 26.6-27.1s-11.6-27.3-26.6-27.3zm182.7 60.5v-11.7h-.2c-5.8 8.7-15.5 13.2-25.9 13.2-19.9 0-35.7-14.9-35.7-35 0-19.9 16.1-34.7 35.7-34.7 10.4 0 20.2 4.4 25.9 13.4h.2V52.9h8.5v66.4h-8.5zm-26.2-60.5c-15.8 0-27.2 11.8-27.2 27.4 0 15.5 11.7 27 27.2 27 15.1 0 26.6-12.3 26.6-27.1s-11.5-27.3-26.6-27.3zm60.1 21.6v38.9h-8.5V53h8.5v9.6h.2c3.7-8.5 10.1-10.7 18.7-11.3v9c-11.6.9-18.9 8.3-18.9 20.2m91.6 8.8h-60.5c.6 13.1 12.8 24 25.8 24 10.2 0 20.2-5.8 23.8-15.7h9c-4.8 13.8-18 23.3-32.7 23.3-19.2 0-34.6-15.7-34.6-34.7 0-18.9 15.4-35 34.5-35 19.4 0 34.9 16.4 34.9 35.6-.1.9-.2 1.6-.2 2.5m-34.6-30.4c-13.2 0-23.8 9.7-25.9 22.7h51.9c-2.2-13-12.6-22.7-26-22.7m-173.1 60.6v-10.4h-.2c-3.9 8.2-12.6 12-21.4 12-8.7 0-17.4-3-22.9-10-4.8-6-5.8-14-5.8-21.5V52.7h8.5v36.8c0 13.8 5 23.9 20.3 23.9 5.6 0 10-1.5 14.2-5.4 5.9-5.6 7-12.2 7-20V52.7h8.5v66.8z" fill="#242627"/></svg>