<svg viewBox="0 0 34.204 29.885" xmlns="http://www.w3.org/2000/svg">
    <title>Vendr</title>
    <path d="m 24.209352,13.59436 c 0.738364,-3.5e-4 1.337028,-0.59866 1.337381,-1.33738 0,-0.73836 -0.598664,-1.33738 -1.337381,-1.33773 -0.738717,0 -1.337733,0.59866 -1.337733,1.33738 v 3.5e-4 c 0,0.73872 0.599016,1.33738 1.337733,1.33738"/>
    <path d="M 11.157775,-4e-5 H 1.0055363 c -0.77328884,0 -1.2562416,0.83714 -0.86924439,1.50636 L 16.232836,29.38282 c 0.386292,0.66957 1.35255,0.66957 1.738842,0 l 8.045449,-13.97247 h -5.967941 z"/>
    <path d="m 33.197954,-4e-5 h -10.15118 l 5.9436,10.29829 5.076824,-8.79193 C 34.454196,0.8371 33.971248,-4e-5 33.197954,-4e-5"/>
</svg>