<?xml version="1.0" encoding="utf-8"?>
<!-- Generator: Adobe Illustrator 25.0.1, SVG Export Plug-In . SVG Version: 6.00 Build 0)  -->
<svg version="1.0" id="katman_1" xmlns="http://www.w3.org/2000/svg" xmlns:xlink="http://www.w3.org/1999/xlink" x="0px" y="0px"
	 viewBox="0 0 560 400" style="enable-background:new 0 0 560 400;" xml:space="preserve">
<style type="text/css">
	.st0{fill:#9D9D9C;}
	.st1{fill:#E30613;}
</style>
<g transform="matrix(.091155 0 0 .091155 30.5795 126.532)">
	<g>
		<path class="st0" d="M1597.9,1083.3l-98.8-404.7l-112.8,404.7h-112.8l-144.2-441.9c-4.7-12.8-9.3-14-20.9-17.4l-43-9.3l12.8-55.8
			h205.8v55.8l-65.1,8.1l114,366.3l117.5-416.3h107l98.8,415.2l114-365.2l-66.3-8.1l11.6-55.8h193v55.8l-37.2,5.8
			c-17.4,3.5-20.9,7-25.6,20.9l-138.4,441.9L1597.9,1083.3z"/>
		<path class="st0" d="M2313.1,819.3c0-133.7-48.8-193-147.7-193c-100,0-158.2,59.3-158.2,194.2c0,136.1,52.3,201.2,153.5,201.2
			C2259.6,1021.7,2313.1,958.9,2313.1,819.3 M1910.8,819.3c0-160.5,81.4-271,255.8-271s241.9,111.6,241.9,264
			c0,172.1-77.9,282.6-252.4,282.6C1979.4,1096.1,1910.8,981,1910.8,819.3"/>
		<path class="st0" d="M2457.4,1083.3v-55.8l51.2-5.8c13.9-2.3,16.3-4.7,16.3-20.9V653c0-11.6-3.5-18.6-12.8-20.9l-58.1-19.8
			l9.3-54.7h133.7l10.5,70.9l3.5,1.2c33.7-38.4,83.7-81.4,153.5-81.4c23.3,0,54.7,4.7,73.3,9.3v154.7l-72.1-3.5l-12.8-70.9
			c-1.2-8.1-3.5-10.5-12.8-10.5c-46.5,0-97.7,41.9-122.1,64v307c0,16.3,1.2,19.8,16.3,20.9l94.2,8.1v54.7h-271L2457.4,1083.3z"/>
		<path class="st0" d="M2866.7,1083.3v-55.8l62.8-5.8c13.9-1.2,16.3-4.7,16.3-20.9V407.7c0-11.6-3.5-18.6-12.8-20.9l-61.6-19.8
			l9.3-54.7h158.2v688.5c0,16.3,1.2,18.6,16.3,20.9l61.6,7v54.7L2866.7,1083.3z"/>
		<path class="st0" d="M3513.3,679.8c-30.2-25.6-86.1-54.7-139.6-54.7c-96.5,0-133.7,83.7-133.7,205.8
			c0,141.9,47.7,188.4,119.8,188.4c60.5,0,109.3-39.5,154.7-84.9V679.8H3513.3z M3530.7,1083.3l-8.1-67.5l-4.6-1.2
			c-46.5,45.3-100,80.2-180.2,80.2c-116.3,0-193.1-75.6-193.1-264c0-201.2,90.7-283.8,214-283.8c61.6,0,116.3,20.9,155.8,48.8V406.5
			c0-10.5-4.6-17.4-12.8-20.9l-60.5-18.6l9.3-54.7h155.8v688.5c0,16.3,1.2,18.6,16.3,20.9l52.3,7v54.7L3530.7,1083.3z"/>
	</g>
	<path class="st1" d="M3887.8,953.1c34.9,33.7,86.1,66.3,139.6,66.3c97.7,0,133.7-80.2,133.7-209.3c0-138.4-54.7-182.6-117.4-182.6
		c-65.1,0-126.8,39.5-155.8,62.8V953.1z M3736.6,1299.6v-55.8l41.9-5.8c13.9-2.3,17.4-4.7,17.4-20.9V653c0-11.6-3.5-18.6-12.8-20.9
		l-58.1-19.8l9.3-54.7h134.9l9.3,59.3l3.5,1.2c55.8-41.9,112.8-70.9,182.6-70.9c114,0,191.9,73.3,191.9,253.5
		c0,153.5-52.3,294.2-212.8,294.2c-58.1,0-107-13.9-155.8-55.8v176.8c0,16.3,1.2,19.8,16.3,20.9l96.5,8.1v54.7L3736.6,1299.6z"/>
	<path class="st1" d="M4629.7,848.4l-115.1,10.5c-88.4,8.1-112.8,33.7-112.8,87.2c0,54.7,23.3,77.9,70.9,77.9
		c60.5,0,124.4-48.8,155.8-79.1v-96.5H4629.7z M4647.2,1083.3l-9.3-66.3l-3.5-1.2c-48.9,45.4-105.8,79.1-184.9,79.1
		c-127.9,0-144.2-88.4-144.2-139.6c0-102.3,62.8-150,186.1-160.5l138.4-11.6v-54.7c0-74.4-14-111.6-103.5-111.6
		c-62.8,0-107,2.3-108.1,79.1l-88.4-9.3c0-125.6,116.3-139.6,197.7-139.6c145.4,0,194.2,40.7,194.2,181.4v271
		c0,16.3,1.2,18.6,16.3,20.9l52.3,7v54.7h-143V1083.3z"/>
	<path class="st1" d="M4848.3,1299.6v-55.8l73.3-9.3c12.8-1.2,16.3-7,22.1-20.9l59.3-136.1l-183.7-434.9c-4.6-12.8-9.3-14-20.9-17.4
		l-41.9-10.5l11.6-55.8h211.7v55.8l-67.5,8.1l136.1,343.1l141.9-343.1l-69.8-8.1l11.6-55.8h202.4v55.8l-34.9,4.7
		c-12.8,2.3-20.9,5.8-25.6,17.4l-247.7,597.7c0,0-11.6,27.9-17.4,39.5c-5.8,14-20.9,25.6-40.7,25.6H4848.3z"/>
	<path class="st1" d="M842,1046.1c-7,10.5-15.1,20.9-24.4,31.4c-19.8,22.1-43,43-68.6,60.5c-32.6,22.1-66.3,39.5-101.2,52.3
		c-30.2,10.5-57,16.3-80.2,17.4h-8.1c-11.6,0-19.8-1.2-24.4-4.7l-2.3-1.2l-2.3-2.3v-1.2c0-1.2,0-3.5,1.2-5.8
		c2.3-5.8,5.8-10.5,10.5-16.3c1.2-1.2,3.5-3.5,4.7-5.8c17.4-4.7,34.9-10.5,54.7-16.3c17.4,3.5,36.1,4.7,52.3,3.5
		c20.9-2.3,40.7-8.1,58.1-17.4c20.9-11.6,39.5-26.8,54.7-45.4c9.3-12.8,17.4-25.6,23.3-40.7c31.4-24.4,58.1-50,79.1-75.6l10.5-14
		C871.1,992.6,859.5,1020.5,842,1046.1 M722.3,1098.4c7-3.5,12.8-8.1,19.8-11.6c-9.3,11.6-20.9,22.1-32.6,30.2
		c-16.3,10.5-33.7,18.6-51.2,22.1c-8.1,1.2-15.1,2.3-23.3,3.5C664.1,1129.8,694.3,1114.7,722.3,1098.4 M935.1,806.6
		c0-33.7-8.1-66.3-24.4-96.5c-14-26.7-34.9-52.3-60.5-75.6c-5.8-31.4-22.1-60.5-46.5-87.2c-19.8-20.9-44.2-39.5-74.4-55.8
		c-23.3-12.8-48.8-23.3-75.6-31.4c-22.1-7-44.2-10.5-65.1-12.8c-19.8-2.3-36.1-1.2-51.2,1.2c-15.1,3.5-29.1,8.1-41.9,15.1l-2.3,1.2
		c-17.4-2.3-34.9-2.3-51.2-1.2h-4.7c-16.3,1.2-50,5.8-47.7,22.1c0,0,0,9.3,20.9,16.3l29.1-17.4c-2.3,0-4.7-1.2-7-1.2
		c9.3-1.2,18.6-2.3,25.6-2.3h5.8c-2.3,1.2-3.5,2.3-5.8,3.5l-9.3,5.8c-17.4,10.5-23.3,15.1-41.9,25.6c-11.6,7-22.1,14-33.7,19.8
		c-22.1,11.6-44.2,23.3-67.5,34.9c-18.6,8.1-37.2,17.4-61.6,27.9l-2.3,1.2c-5.8,2.3-11.6,4.7-16.3,7h-1.2
		c-5.8,2.3-12.8,5.8-16.3,12.8l-1.2,4.7v4.7c0,1.2,1.2,2.3,1.2,2.3l3.5,3.5l3.5,2.3h1.2c3.5,1.2,8.1,1.2,12.8,1.2h20.9
		c8.1,0,16.3-1.2,23.3-1.2c38.4-1.2,73.3-1.2,107,0c32.6,1.2,65.1,4.7,97.7,8.1l48.8,7c10.5-9.3,18.6-16.3,24.4-23.3
		c-33.7-7-67.5-11.6-100-15.1c-33.7-3.5-69.8-5.8-105.8-5.8h-12.8c-17.4,0-36.1,0-53.5,1.2c17.4-8.1,32.6-16.3,47.7-23.3
		c22.1-11.6,44.2-24.4,66.3-38.4c16.3-10.5,33.7-22.1,53.5-36.1l3.5-2.3c23.3,4.7,51.2,9.3,79.1,15.1l59.3,14
		c-8.1-19.8-32.6-31.4-46.5-37.2c-19.8-3.5-40.7-8.1-65.1-11.6c5.8-4.7,11.6-8.1,17.4-10.5c19.8,2.3,36,5.8,51.2,11.6
		c11.6,4.7,20.9,9.3,29.1,15.1c1.2,1.2,3.5,2.3,4.7,3.5c14,11.6,22.1,26.7,22.1,41.9c1.2,12.8-2.3,26.7-9.3,40.7
		c-3.5,8.1-9.3,16.3-15.1,24.4c-1.2,2.3-11.6,17.4-34.9,37.2c-22.1,20.9-48.8,39.5-81.4,59.3c-11.6,7-22.1,12.8-33.7,18.6
		c-14,7-27.9,14-39.5,18.6c-18.6,8.1-50,22.1-89.5,33.7c-20.9,5.8-40.7,11.6-60.5,15.1c-15.1,3.5-33.7,5.8-52.3,7
		c20.9-9.3,44.2-15.1,68.6-18.6c46.5-10.5,86.1-25.6,111.6-37.2c-24.4,0-48.8,1.2-74.4,3.5c-41.9,4.7-75.6,10.5-105.8,20.9
		c-17.4,5.8-40.7,15.1-46.5,30.2c-1.2,8.1,0,14,2.3,19.8c4.7,9.3,14,14,29.1,16.3c11.6,1.2,24.4,1.2,41.9-1.2
		c31.4-3.5,65.1-10.5,103.5-23.3c33.7-10.5,64-23.3,93-36.1c32.6,1.2,65.1,4.7,96.5,10.5c33.7,5.8,62.8,14,90.7,24.4
		c31.4,11.6,58.1,24.4,80.2,39.5c8.1-5.8,15.1-11.6,20.9-16.3c-1.2,0-1.2-1.2-2.3-1.2c-27.9-18.6-60.5-34.9-95.4-47.7
		c-29.1-10.5-60.5-18.6-95.4-25.6c-16.3-3.5-32.6-5.8-50-7c27.9-15.1,52.3-30.2,74.4-47.7c19.8-15.1,36-30.2,51.2-45.4
		c39.5,10.5,73.3,20.9,103.5,33.7c36,15.1,67.5,32.6,94.2,52.3l2.3,1.2c5.8-8.1,10.5-17.4,14-24.4c-24.4-17.4-51.2-32.6-80.2-46.5
		c-32.6-15.1-68.6-27.9-108.2-38.4c-1.2,0-2.3-1.2-4.7-1.2c17.4-24.4,27.9-47.7,30.2-69.8c1.2-7,1.2-12.8,0-19.8
		c33.7,10.5,66.3,23.3,96.5,37.2s55.8,29.1,77.9,46.5l1.2,1.2c-5.8-24.4-18.6-43-25.6-51.2c-14-8.1-29.1-15.1-45.4-23.3
		c-27.9-12.8-59.3-24.4-93-34.9c-7-2.3-15.1-4.7-22.1-5.8h-1.2c-10.5-18.6-26.7-29.1-39.5-36.1c-14-7-30.2-12.8-48.8-16.3
		c8.1-1.2,15.1-2.3,23.3-2.3h2.3c7,0,15.1,0,23.3,1.2c2.3,0,3.5,0,5.8,1.2c19.8,2.3,39.5,7,61.6,14c25.6,8.1,50,18.6,70.9,31.4
		c26.7,15.1,48.8,32.6,66.3,52.3c5.8,7,11.6,14,16.3,20.9c1.2,1.2,2.3,2.3,2.3,4.7c0,0,0,1.2,1.2,1.2c8.1,14,16.3,32.6,17.4,54.7
		c2.3,23.3-2.3,46.5-9.3,65.1c0,1.2-9.3,26.7-25.6,50c-16.3,24.4-38.4,48.8-65.1,72.1c-5.8,5.8-23.3,20.9-47.7,37.2
		c-23.3,16.3-47.7,31.4-73.3,45.4c-19.8,11.6-40.7,20.9-66.3,32.6c-10.5,4.7-25.6,10.5-43,16.3c-27.9,10.5-55.8,18.6-83.7,25.6
		c-40.7,9.3-76.8,15.1-111.6,17.4c-14,1.2-26.7,1.2-39.5,0c-18.6-1.2-38.4-3.5-50-14l-2.3-2.3v-2.3c2.3-7,8.1-11.6,14-16.3
		c8.1-5.8,17.4-10.5,29.1-15.1c26.7-10.5,57-17.4,91.9-20.9c32.6-2.3,66.3-1.2,97.7,3.5c16.3,2.3,32.6,7,48.8,11.6
		c11.6-3.5,23.3-8.1,31.4-11.6c-19.8-8.1-41.9-15.1-65.1-20.9c-32.6-7-67.4-9.3-102.3-8.1c-36.1,1.2-69.8,7-100,16.3
		c-24.4,8.1-51.2,18.6-67.4,39.5c-7,9.3-10.5,19.8-8.1,31.4c2.3,14,14,23.3,19.8,26.7c15.1,9.3,33.7,13.9,46.5,15.1
		c14,2.3,29.1,3.5,45.4,3.5h8.1c33.7-1.2,69.8-5.8,112.8-15.1c36.1-8.1,73.3-18.6,111.6-33.7c10.5-4.7,22.1-8.1,32.6-12.8
		c17.4,11.6,30.2,24.4,38.4,38.4c8.1,13.9,11.6,26.7,11.6,40.7c0,12.8-3.5,25.6-10.5,37.2c-1.2,3.5-3.5,5.8-5.8,9.3
		c8.1-2.3,16.3-5.8,24.4-9.3l3.5-7c5.8-15.1,8.1-31.4,5.8-46.5c-2.3-17.4-10.5-34.9-23.3-50c-5.8-8.1-14-15.1-22.1-22.1
		c37.2-17.4,70.9-36,101.2-55.8c15.1-10.5,30.2-20.9,44.2-31.4c23.3,22.1,40.7,46.5,48.8,73.3c4.7,14,7,27.9,7,43
		c9.3-8.1,17.4-15.1,23.3-20.9c-2.3-20.9-9.3-40.7-20.9-60.5c-9.3-17.4-23.3-33.7-39.5-50c31.4-26.7,57-54.7,75.6-83.7
		c1.2-1.2,2.3-3.5,3.5-4.7c23.3,23.3,40.7,48.8,52.3,74.4v1.2c2.3,4.7,3.5,10.5,5.8,15.1c8.1-18.6,11.6-34.9,12.8-45.4
		c-9.3-18.6-22.1-36.1-36.1-51.2c-5.8-7-12.8-12.8-19.8-19.8c12.8-26.7,20.9-52.3,23.3-76.8c5.8,7,11.6,14,16.3,20.9
		c17.4,26.7,29.1,54.7,31.4,81.4c1.2,10.5,1.2,19.8,1.2,30.2c0,1.2,0,11.6-3.5,27.9c0,2.3-1.2,5.8-2.3,8.1
		c-3.5,12.8-9.3,29.1-17.4,46.5c-1.2,1.2-1.2,3.5-2.3,4.7s-1.2,3.5-2.3,4.7c-15.1,27.9-36.1,55.8-62.8,81.4c-3.5,3.5-7,7-11.6,10.5
		c-9.3,9.3-23.3,20.9-36.1,30.2c-25.6,19.8-53.5,37.2-82.6,52.3c-22.1,11.6-45.4,23.3-69.8,32.6c-25.6,10.5-50,18.6-68.6,23.3
		c-34.9,9.3-68.6,16.3-101.2,19.8c-30.2,2.3-53.5,2.3-75.6-1.2c-14-2.3-24.4-5.8-33.7-10.5c-2.3-1.2-4.7-3.5-5.8-4.7
		c0-1.2-1.2-1.2-1.2-2.3v-2.3c4.7-11.6,19.8-17.4,34.9-22.1c14-4.7,31.4-7,50-7h2.3c17.4,0,34.9,2.3,53.5,7
		c17.4,3.5,34.9,9.3,50,15.1c1.2,0,1.2,1.2,2.3,1.2c7-1.2,15.1-3.5,25.6-7c-1.2,0-2.3-1.2-4.7-1.2c-7-2.3-14-5.8-20.9-8.2
		c-19.8-8.1-36.1-12.8-52.3-17.4c-19.8-4.7-39.5-8.1-58.1-8.1c-19.8-1.2-39.5,1.2-58.1,5.8c-19.8,4.7-33.7,12.8-44.2,22.1
		c-7,7-10.5,16.3-10.5,25.6c0,9.3,4.7,18.6,12.8,25.6c20.9,18.6,54.7,23.3,81.4,24.4c33.7,2.3,69.8-1.2,109.3-8.1
		c4.7-1.2,10.5-2.3,15.1-3.5c-3.5,5.8-7,11.6-8.1,18.6c-1.2,10.5,4.7,20.9,16.3,26.8c10.5,5.8,24.4,9.3,43,9.3h10.5
		c29.1-1.2,59.3-8.1,93-20.9c33.7-11.6,65.1-29.1,95.4-48.8c26.7-18.6,52.3-40.7,73.3-65.1c22.1-25.6,40.7-53.5,52.3-82.6
		c12.8-29.1,18.6-61.6,17.4-93c0-4.7,0-9.3-1.2-14C926.9,875.2,935.1,840.3,935.1,806.6"/>
</g>
</svg>
