<?xml version="1.0" encoding="utf-8"?>
<!-- Generator: Adobe Illustrator 24.1.2, SVG Export Plug-In . SVG Version: 6.00 Build 0)  -->
<svg version="1.1" id="Layer_1" xmlns="http://www.w3.org/2000/svg" xmlns:xlink="http://www.w3.org/1999/xlink" x="0px" y="0px"
	 viewBox="0 0 760 356" style="enable-background:new 0 0 760 356;" xml:space="preserve">
<style type="text/css">
	.st0{fill:#8247B5;}
</style>
<g id="Lager_1">
	<path class="st0" d="M82.8,165c0,22.2-16.9,38.8-37,38.8c-7.2,0.1-14.2-1.9-20.4-5.6l0,0c-8,2.3-16.3,3.6-24.6,3.8V101.2
		c8.3-0.2,16.6-1.4,24.6-3.8v34.6c6-4,13.1-6,20.4-5.9C65.9,126.2,82.8,142.8,82.8,165z M58.4,165c0.4-9.8-7.1-18-16.9-18.5
		c-0.2,0-0.4,0-0.6,0c-6-0.1-11.7,2.4-15.5,7v23c3.9,4.5,9.6,7.1,15.5,7C51.2,183.5,58.4,175.5,58.4,165z"/>
	<path class="st0" d="M382,165c0,22.2-16.9,38.8-37,38.8c-7.2,0.1-14.2-1.9-20.4-5.6l0,0c-8,2.3-16.3,3.6-24.6,3.8V101.2
		c8.3-0.2,16.6-1.4,24.6-3.8v34.6c6-4,13.1-6,20.4-5.9C365.1,126.2,382,142.8,382,165z M357.6,165c0.4-9.8-7.1-18-16.9-18.5
		c-0.2,0-0.4,0-0.6,0c-6-0.2-11.7,2.4-15.5,7v23c3.8,4.6,9.6,7.1,15.5,7C350.4,183.5,357.6,175.5,357.6,165z"/>
	<path class="st0" d="M464.8,164.7c0,22.8-16.9,39.6-40.5,39.6c-23.6,0-40.2-16.9-40.2-39.6s16.9-38.8,40.2-38.8
		S464.8,142.5,464.8,164.7z M441.2,165c0-9.6-6.7-17.7-16.6-17.7c-9.3,0-16.9,7.5-16.9,16.9c0,0.3,0,0.5,0,0.8
		c0,9.9,6.7,17.9,16.9,17.9S441.2,174.9,441.2,165L441.2,165z"/>
	<path class="st0" d="M492.6,127.8v7.8c7.2-6.1,16.3-9.4,25.7-9.1V150c-12.1,0.5-19.8,3.8-25.7,9.6V202H468v-70.5
		C476.3,131.3,484.6,130.1,492.6,127.8z"/>
	<path class="st0" d="M196.9,132.1c-8.4-0.2-16.8-1.5-24.9-3.8V202h24.9v-47.4c3.8-4.8,7.5-6.7,11.3-6.7c8,0,13.4,5.1,13.4,15.5V202
		h24.6v-42.3c0-1.9,0-3.8-0.3-5.6c2.6-3.8,6.9-6.1,11.5-6.2c8,0,13.1,5.1,13.1,15.5V202h25.2v-42.3c0-21.2-13.4-34.3-31.1-34.3
		c-9.7-0.4-19.2,3.2-26.3,9.9c-5.8-6.5-14.3-10.2-23-9.9C208.6,125.1,201.9,127.5,196.9,132.1z"/>
	<path class="st0" d="M167.2,202c-8.4-0.2-16.8-1.5-24.9-4l0,0c-6.1,3.8-13.2,5.7-20.4,5.6c-20.1,0-37-16.9-37-38.8
		s16.9-38.8,37-38.8c7.2-0.1,14.2,1.9,20.4,5.6l0,0c8.4-0.2,16.8-1.5,24.9-3.8L167.2,202z M142.2,176.3v-23c-3.8-4.6-9.6-7.2-15.5-7
		c-9.8,0.1-17.6,8.2-17.4,17.9c0,0.2,0,0.4,0,0.6c-0.4,9.8,7.1,18,16.9,18.5c0.2,0,0.4,0,0.6,0C132.7,183.5,138.5,180.9,142.2,176.3
		L142.2,176.3z"/>
	<path class="st0" d="M599.8,202c-8.4-0.2-16.8-1.5-24.9-4l0,0c-6.1,3.8-13.2,5.8-20.4,5.6c-20.1,0-37-16.9-37-38.8
		s16.9-38.8,37-38.8c7.2-0.1,14.3,1.8,20.4,5.6l0,0c8.4-0.2,16.8-1.5,24.9-3.8V202z M574.9,176.3v-23c-3.8-4.6-9.6-7.2-15.5-7
		c-10.2,0-18.5,8.3-18.5,18.5c0,10.2,8.3,18.5,18.5,18.5C565.3,183.5,571.1,180.9,574.9,176.3L574.9,176.3z"/>
	<path class="st0" d="M576.2,290.4l14.2,5.1l3.2-7.5l-15.8-5.4L576.2,290.4z M579.4,275.6l17.1,5.9l3.8-7.2c-6.4-1.9-12.9-4-19-6.4
		C580.8,270.6,580,273.2,579.4,275.6z M573,305.1l12.1,4.3c0.8-2.4,1.9-4.8,2.9-7.5c-4.5-1.4-9-3-13.4-4.8
		C574.1,300,573.5,302.4,573,305.1L573,305.1z M567.1,334.6l7.8,2.9c0.8-2.1,1.6-4.8,2.7-7.5l-8.8-3.2
		C567.9,329.5,567.7,332.2,567.1,334.6L567.1,334.6z M570.1,319.8l9.9,3.8c0.8-2.4,1.6-4.8,2.7-7.5l-11-4.3
		C570.9,314.4,570.4,317.1,570.1,319.8L570.1,319.8z M582.9,261.2c7,2.4,14.2,4.8,21.2,6.7c1.5-2.3,3.2-4.6,5.1-6.7
		c-8.1-2.2-16-4.8-23.8-7.8L582.9,261.2z M634.4,297.9l-13.4-2.7l1.3,8.6l12.3,2.1L634.4,297.9z M633.8,282.1
		c-5.3-0.8-10.6-1.9-15.8-3.2l1.3,8.6l14.7,2.7L633.8,282.1z M590.7,239.5l-3.2,7.5c8.8,3.1,17.7,5.7,26.8,7.8
		c2.3-2.3,4.7-4.4,7.2-6.4C611,246.2,600.7,243.2,590.7,239.5z M625,257.2l7.8,1.3v-7.8C629.9,252.5,627.2,254.6,625,257.2z
		 M633,266.3l-12.6-2.4c-1.5,2.3-2.7,4.7-3.8,7.2c5.6,1.3,11,2.4,16.6,3.2L633,266.3z M563.4,354.9h5.4c0.5-1.6,2.7-7.2,3.8-10.7
		l-6.7-2.7C565.2,344.8,563.9,352.8,563.4,354.9z M701.6,226.1l7.8-1.3l-0.5-8l-5.4,1.1L701.6,226.1z M717.1,132.3
		c-9.4,0.5-18.5,1.6-27.9,2.9l-0.8,1.9c-0.8,2.4-1.8,4.7-2.9,7c9.8-1.9,19.8-3.2,29.7-3.8C715.8,137.7,716.6,135,717.1,132.3
		L717.1,132.3z M711.8,157l1.6-8c-10.5,0.8-20.8,2.5-31.1,4.8l-2.1,0.5c-2.1,3.2-4.3,6.4-6.4,9.1l10.2-1.9
		C693.1,159.5,702.4,158,711.8,157L711.8,157z M729.2,8.3c1.9,0.5,3.8-0.7,4.2-2.6c0-0.1,0.1-0.3,0.1-0.4c0.2-2-1-3.8-2.9-4.3
		c-2-0.3-3.9,1-4.3,2.9c-0.5,1.9,0.7,3.8,2.6,4.2C728.9,8.3,729.1,8.3,729.2,8.3L729.2,8.3z M720.6,116c-8.3,0.3-16.6,0.8-24.9,1.9
		c-1.1,2.7-1.9,5.6-2.9,8.3c8.6-1.1,17.4-1.9,26-2.1C719.3,121.3,719.8,118.7,720.6,116z M705.4,208.4l2.7-0.5l-0.8-7.8L705.4,208.4
		z M699.5,209.7c0.8-2.9,1.3-5.9,2.1-8.6c-25.7,5.5-52.2,5.7-78,0.5l-8.3,6.2c15,3.7,30.4,5.6,45.8,5.6
		C674,213.4,686.8,212.2,699.5,209.7L699.5,209.7z M698.1,192.9l5.6-1.3c0.8-2.7,1.3-5.6,2.1-8.3l-9.4,1.9
		c-12.7,2.9-25.6,4.3-38.6,4.3l-13.7-0.5l-11,6.7c8.2,1.2,16.4,1.8,24.6,1.9C671.5,197.4,684.9,195.8,698.1,192.9L698.1,192.9z
		 M707.8,174.1c0.8-2.7,1.3-5.6,1.9-8.3c-6.7,0.8-13.4,2.1-20.4,3.5c-7.9,1.9-16,3.2-24.1,3.8l-9.9,8.3c12.1,0,24.1-1.4,35.9-4.3
		L707.8,174.1z M635.7,329.5l-8.8-1.6l1.3,8.3l7.8,1.3L635.7,329.5z M697.8,243.5l13.1-2.1l-0.8-8l-10.4,1.9L697.8,243.5z
		 M634.9,313.7l-11-2.1l1.3,8.6l10.2,1.6L634.9,313.7z M719,332.2l-7.5,0.8l1.6,7.8l6.7-0.5L719,332.2z M714.7,349l1.1,5.9h5.4
		l-0.5-6.4L714.7,349z M717.7,315.8l-9.1,1.1l1.6,7.8l8.3-0.8L717.7,315.8z M714.7,283.1l-12.3,1.3l1.3,8l11.8-1.3L714.7,283.1z
		 M716.1,299.5l-10.7,1.3l1.6,7.8l9.9-1.1L716.1,299.5z M698.7,109c7.8-0.8,15.8-1.1,23.6-1.3l1.6-7.8c-7.5,0-15,0.3-22.5,0.8
		C700.3,103.4,699.5,106.3,698.7,109L698.7,109z M723,16.3c-1.3-0.4-1.8-1.4-1.6-3.2c0.5-1.7,0.2-3.6-0.8-5.1
		c-1.9-2-4.5-3.1-7.2-3.2c0,0-1.6,4.6,0.5,7.2c1.3,1.5,3.1,2.4,5.1,2.7c1.3,0.1,2.3,1.3,2.1,2.6c0,0,0,0,0,0
		c0.1,3.1-0.2,6.1-0.8,9.1c7.8,1.1,17.4,2.9,27.3,5.1h9.6l2.7-4.8C748,22.3,735.6,18.8,723,16.3z M716.6,43.7l17.7,0.8
		c0.5-2.7,1.1-5.4,1.3-7.8l-17.4-1.1L716.6,43.7z M710.4,67.8c-0.5,2.7-1.3,5.4-2.1,8h20.1L730,68L710.4,67.8z M712.6,59.7
		c6.4,0,12.6,0,18.8,0.5l1.6-8l-18.2-0.5C713.9,54.4,713.4,57,712.6,59.7z M706.2,84.1l-2.4,8c7.2-0.3,14.5-0.5,21.7-0.3l1.6-8
		C720.1,83.6,713.1,83.8,706.2,84.1z M669.2,221.5h-2.7c-19.5,0-38.8-2.6-57.6-7.8c-2.2,2-4.2,4.2-6.2,6.4
		c20.1,6.1,40.9,9.2,61.9,9.1h4.6c8.7,0,17.4-0.8,26-2.1c0.8-2.7,1.3-5.4,2.1-8.3C688,220.4,678.6,221.3,669.2,221.5z M713.1,266.5
		l-13.9,1.9l1.6,7.8c4.4-0.3,8.8-0.8,13.1-1.6L713.1,266.5z M659.5,308.9l14.2,0.8c0.8-2.7,1.3-5.4,2.1-8c-5.2,0-10.4-0.3-15.5-0.8
		C660.2,303.9,659.9,306.5,659.5,308.9L659.5,308.9z M657.9,324.7l11.5,0.8c0.5-2.7,1.3-5.4,2.1-8l-12.9-0.8
		C658.6,319.7,658.3,322.3,657.9,324.7L657.9,324.7z M655.3,354.9h5.9c0.5-1.9,1.3-4,1.9-6.4l-7.2-0.5
		C655.3,353.3,655.3,354.9,655.3,354.9z M656.6,340.2l8.6,0.8c0.5-2.7,1.3-5.1,2.1-7.8l-10.2-0.8
		C656.9,335.4,656.6,338.1,656.6,340.2L656.6,340.2z M660.9,293.1l16.9,0.5h0.3c0.8-2.7,1.3-5.4,2.1-8c-6.3,0.2-12.7,0-19-0.5
		C661.1,287.7,661.1,290.4,660.9,293.1L660.9,293.1z M629.8,344.2l1.9,10.7h5.1l-0.5-9.6L629.8,344.2z M660.9,269.2
		c0.3,2.7,0.3,5.4,0.3,8h21.2c0.8-2.7,1.3-5.4,2.1-8h-9.9H660.9z M711.8,250.2l-15.8,2.1l0,0l1.6,7.8c4.8-0.5,9.9-1.1,15-2.1
		L711.8,250.2z M657.4,253.1c1,2.6,1.7,5.3,2.1,8h11.5c5.2,0.1,10.4-0.1,15.5-0.5c0.8-2.4,1.3-5.4,2.1-8
		C678.3,253.5,667.8,253.6,657.4,253.1L657.4,253.1z M598.5,226.1c-1.6,2.1-2.9,4.6-4.6,7c12.1,4.2,24.6,7.3,37.2,9.4
		c3.4-1.5,7-2.2,10.7-2.1c4.1-0.1,8,1.6,10.7,4.6c5.2,0.4,10.4,0.6,15.5,0.5c7.6,0,15.2-0.3,22.8-1.1c0.8-2.7,1.3-5.4,2.1-8.3
		c-8.3,1.1-16.6,1.6-24.9,1.6C644.4,237.6,620.9,233.7,598.5,226.1z"/>
</g>
</svg>
