<?xml version="1.0" encoding="utf-8"?>
<svg viewBox="0 0 178 23" xmlns="http://www.w3.org/2000/svg">
<path d="M3.217,19.7571 L7.253,19.7571 C8.959,19.7781 10.158,19.4711 10.847,18.8341 C11.535,18.1961 11.925,17.4921 12.012,16.7231 C12.033,16.6351 12.045,16.5531 12.045,16.4761 L12.045,16.2291 C12.045,15.1951 11.64,14.3551 10.83,13.7061 C10.022,13.0581 8.774,12.7341 7.09,12.7341 L3.217,12.7341 L3.217,19.7571 Z M3.217,9.8461 L5.351,9.8461 C6.946,9.8671 8.134,9.5811 8.91,8.9881 C9.688,8.3951 10.075,7.4921 10.075,6.2831 C10.075,5.4481 9.796,4.7181 9.239,4.0911 C8.682,3.4641 7.658,3.1511 6.17,3.1511 L3.217,3.1511 L3.217,9.8461 Z M-4.97379915e-14,0.2631 L6.498,0.2631 C8.862,0.2841 10.59,0.8691 11.685,2.0191 C12.778,3.1671 13.347,4.4311 13.391,5.8091 L13.391,5.9251 L13.391,6.0061 C13.391,7.1651 13.112,8.1341 12.554,8.9091 C11.995,9.6881 11.137,10.3171 9.978,10.7981 L9.978,10.8291 C11.662,11.1571 12.981,11.8431 13.933,12.8811 C14.884,13.9211 15.36,15.1951 15.36,16.7041 C15.36,16.8801 15.354,17.0551 15.344,17.2301 C15.331,17.4041 15.305,17.5791 15.261,17.7551 C15.02,18.9811 14.31,20.1011 13.127,21.1181 C11.946,22.1371 10.13,22.6451 7.68,22.6451 L-4.97379915e-14,22.6451 L-4.97379915e-14,0.2631 Z"></path>
<path d="M37.9377,13.8499 C37.9377,16.6069 37.1117,18.8109 35.4597,20.4609 C33.8077,22.1149 31.3197,22.9409 27.9937,22.9409 C25.6307,22.9409 23.4867,22.2459 21.5617,20.8559 C19.6367,19.4669 18.6737,17.2519 18.6737,14.2099 L18.6737,0.2619 L21.8897,0.2619 L21.8897,13.4889 C21.8897,14.7809 21.9877,15.7479 22.1857,16.3939 C22.3827,17.0389 22.7317,17.6129 23.2357,18.1159 C23.8697,18.7509 24.5917,19.2269 25.4007,19.5429 C26.2107,19.8619 27.0967,20.0199 28.0597,20.0199 C29.2847,20.0199 30.3397,19.8439 31.2267,19.4949 C32.1127,19.1449 32.8067,18.7169 33.3107,18.2139 C33.8797,17.6469 34.2567,16.9509 34.4427,16.1299 C34.6287,15.3109 34.7217,14.3739 34.7217,13.3249 L34.7217,0.2619 L37.9377,0.2619 L37.9377,13.8499 Z"></path>
<path d="M62.091,1.805 L62.091,5.251 C61.216,4.77 60.379,4.36 59.581,4.02 C58.782,3.682 57.979,3.425 57.169,3.249 C56.709,3.162 56.25,3.091 55.79,3.036 C55.331,2.981 54.861,2.954 54.379,2.954 C51.82,2.954 49.692,3.764 47.996,5.382 C46.3,7.002 45.453,9.047 45.453,11.519 C45.453,14.035 46.29,16.081 47.963,17.657 C49.637,19.232 51.82,20.019 54.51,20.019 C55.146,20.019 55.79,19.965 56.446,19.855 C57.104,19.745 57.76,19.581 58.416,19.364 C59.072,19.144 59.729,18.882 60.385,18.576 C61.041,18.269 61.687,17.908 62.321,17.493 L62.321,20.971 C61.228,21.562 60.04,22.038 58.76,22.398 C57.481,22.759 55.965,22.94 54.215,22.94 C50.911,22.94 48.32,22.115 46.438,20.462 C44.556,18.811 43.297,16.989 42.663,14.998 C42.488,14.451 42.357,13.91 42.27,13.374 C42.182,12.838 42.138,12.318 42.138,11.815 C42.138,8.402 43.292,5.579 45.602,3.348 C47.908,1.117 50.845,2.66453526e-14 54.412,2.66453526e-14 C55.571,2.66453526e-14 56.759,0.147 57.974,0.443 C59.188,0.739 60.561,1.204 62.091,1.838 L62.091,1.805 Z"></path>
<polygon points="85.9504 22.6448 81.5194 22.6448 70.1314 11.5848 70.1314 22.6448 66.9164 22.6448 66.9164 0.2628 70.1314 0.2628 70.1314 10.5018 79.5524 0.2628 83.5544 0.2628 73.8074 10.8638"></polygon>
<path d="M112.2697,10.0432 L114.3367,10.0432 C116.0437,10.0642 117.2047,9.7102 117.8167,8.9772 C118.4277,8.2432 118.7357,7.4172 118.7357,6.4972 L118.7357,6.4662 L118.7357,6.4332 C118.7127,5.3712 118.3637,4.5382 117.6847,3.9312 C117.0067,3.3232 115.8897,3.0202 114.3367,3.0202 L112.2697,3.0202 L112.2697,10.0432 Z M114.6997,0.2632 C116.9737,0.2842 118.7677,0.8542 120.0807,1.9702 C121.3927,3.0852 122.0487,4.6162 122.0487,6.5642 C122.0487,7.8552 121.7267,8.9712 121.0827,9.9102 C120.4357,10.8522 119.5117,11.5642 118.3077,12.0452 C118.9437,12.4602 119.5167,12.9522 120.0327,13.5212 C120.5447,14.0912 121.0427,14.7352 121.5247,15.4582 C121.8087,15.8732 122.0987,16.3152 122.3947,16.7862 C122.6907,17.2572 122.9907,17.7432 123.2967,18.2472 C123.4277,18.4662 123.5527,18.6742 123.6737,18.8702 C123.7937,19.0672 123.9207,19.2552 124.0507,19.4292 C124.0737,19.4732 124.1007,19.5222 124.1327,19.5752 C124.1667,19.6322 124.2047,19.6802 124.2487,19.7242 C124.5107,20.1172 124.8057,20.5382 125.1347,20.9862 C125.4617,21.4362 125.8687,21.9872 126.3487,22.6452 L122.5087,22.6452 L119.5557,18.0502 C118.3077,16.1252 117.3017,14.8282 116.5367,14.1602 C115.7707,13.4932 115.0477,13.1162 114.3707,13.0282 C114.2397,13.0082 114.1137,12.9902 113.9937,12.9802 C113.8727,12.9692 113.7477,12.9642 113.6167,12.9642 L112.2697,12.9642 L112.2697,22.6452 L109.0537,22.6452 L109.0537,0.2632 L114.6997,0.2632 Z"></path>
<path d="M129.4992,11.4534 C129.4992,13.9274 130.3252,15.9734 131.9772,17.5914 C133.6282,19.2114 135.7022,20.0184 138.1962,20.0184 C140.7132,20.0184 142.7952,19.2114 144.4482,17.5914 C146.1002,15.9734 146.9252,13.9364 146.9252,11.4864 C146.9252,9.0144 146.1002,6.9744 144.4482,5.3664 C142.7952,3.7584 140.7132,2.9534 138.1962,2.9534 C135.7022,2.9534 133.6282,3.7584 131.9772,5.3664 C130.3252,6.9744 129.4992,9.0144 129.4992,11.4864 L129.4992,11.4534 Z M126.1842,11.4534 C126.1842,8.3684 127.2782,5.6884 129.4662,3.4124 C131.6532,1.1394 134.5632,0.0004 138.1962,0.0004 C141.8932,0.0004 144.8242,1.1334 146.9912,3.3964 C149.1572,5.6604 150.2412,8.3574 150.2412,11.4864 C150.2412,14.5064 149.1672,17.1704 147.0242,19.4774 C144.8802,21.7864 141.9152,22.9404 138.1302,22.9404 C134.4762,22.9404 131.5722,21.7924 129.4172,19.4934 C127.2612,17.1964 126.1842,14.5274 126.1842,11.4864 L126.1842,11.4534 Z"></path>
<path d="M157.1652,11.4534 C157.1652,13.9274 157.9902,15.9734 159.6422,17.5914 C161.2942,19.2114 163.3672,20.0184 165.8622,20.0184 C168.3772,20.0184 170.4602,19.2114 172.1132,17.5914 C173.7652,15.9734 174.5912,13.9364 174.5912,11.4864 C174.5912,9.0144 173.7652,6.9744 172.1132,5.3664 C170.4602,3.7584 168.3772,2.9534 165.8622,2.9534 C163.3672,2.9534 161.2942,3.7584 159.6422,5.3664 C157.9902,6.9744 157.1652,9.0144 157.1652,11.4864 L157.1652,11.4534 Z M153.8502,11.4534 C153.8502,8.3684 154.9422,5.6884 157.1312,3.4124 C159.3192,1.1394 162.2292,0.0004 165.8622,0.0004 C169.5582,0.0004 172.4912,1.1334 174.6572,3.3964 C176.8232,5.6604 177.9062,8.3574 177.9062,11.4864 C177.9062,14.5064 176.8332,17.1704 174.6882,19.4774 C172.5442,21.7864 169.5802,22.9404 165.7952,22.9404 C162.1412,22.9404 159.2382,21.7924 157.0832,19.4934 C154.9272,17.1964 153.8502,14.5274 153.8502,11.4864 L153.8502,11.4534 Z"></path>
<path d="M100.5305,9.6136 L93.5745,9.6136 L97.1835,17.7196 L100.5305,9.6136 Z M85.9925,0.1306 L89.2745,0.1306 L92.2595,6.7256 L101.7785,6.7256 L104.6005,0.1306 L107.8825,0.1306 L98.2675,22.6426 L96.0015,22.6426 L85.9925,0.1306 Z" fill="#cdd905"></path>
</svg>