<?xml version="1.0" encoding="utf-8"?>
<!-- Generator: Adobe Illustrator 16.0.0, SVG Export Plug-In . SVG Version: 6.00 Build 0)  -->
<!DOCTYPE svg PUBLIC "-//W3C//DTD SVG 1.1//EN" "http://www.w3.org/Graphics/SVG/1.1/DTD/svg11.dtd">
<svg version="1.1" id="Layer_1" xmlns="http://www.w3.org/2000/svg" xmlns:xlink="http://www.w3.org/1999/xlink" x="0px" y="0px"
	 width="470px" height="143.51px" viewBox="0 0 470 143.51" enable-background="new 0 0 470 143.51" xml:space="preserve">
<g>
	<path fill="#1295CB" d="M53.099,24.792H0v71.823h52.838c24.791,0,29.494-12.628,29.494-35.911
		C82.332,33.188,75.503,24.792,53.099,24.792z M68.862,64.278c0,18.315-5.899,19.686-14.896,19.686H13.47V37.432h41.877
		c8.172,0,13.515,1.406,13.515,20.056V64.278z"/>
	<rect x="96.779" y="24.792" fill="#1295CB" width="13.471" height="71.823"/>
	<path fill="#1295CB" d="M194.232,58.12c2.974-2.305,4.651-5.799,4.651-10.193v-5.7c0-6.511-2.478-17.435-19.101-17.435h-53.876
		v71.823h54.737c12.546,0,20.664-6.593,20.664-16.805v-7.898C201.307,65.11,198.903,60.537,194.232,58.12z M138.334,37.432h41.084
		c1.5,0,6.406,0.315,6.406,4.344v6.059c0,2.733-0.805,5.539-6.84,5.539H138.32L138.334,37.432z M188.261,77.697
		c0,3.298-0.638,6.267-8.242,6.267h-41.685l-0.014-17.945h40.399c7.751,0,9.542,1.29,9.542,6.902V77.697z"/>
	<path fill="#1295CB" d="M264.439,53.826h-25.086c-13.078,0-13.078-2.49-13.078-7.919c0-7.997,2.57-9.207,19.657-9.207h8.989
		c16.962,0,20.092,0.76,20.75,5.799h13.058c-0.655-13.206-8.855-18.445-28.702-18.445h-18.251c-10.229,0-16.445,1.188-20.808,3.977
		c-5.146,3.266-7.644,8.904-7.644,17.231c0,20.973,12.626,21.952,36.833,21.952h16.097c10.311,0,11.178,1.902,11.178,7.819
		c0,7.014-1.164,9.653-13.419,9.653h-26.302c-9.669,0-11.143-2.552-11.32-6.053h-12.958c0.472,18.698,18.142,18.712,25.74,18.712
		h23.531c9.675,0,27.68,0,27.68-20.199v-4.318C290.383,55.802,275.58,53.826,264.439,53.826z"/>
	<g>
		<g>
			<path fill="#1295CB" d="M418.657,119.294V97.042h-14.159v22.252c0,5.525-4.52,10.051-10.039,10.044l-41.199,0.007
				c-5.521,0-10.036-4.52-10.036-10.051V78.112c0-5.526,4.516-10.043,10.042-10.048l41.183,0.005c0.052,0,0.1,0.011,0.161,0.011
				h21.854c-3.83-8.354-12.239-14.213-22.016-14.213h-41.183c-13.354,0-24.216,10.896-24.216,24.245v41.182
				c0,13.355,10.862,24.216,24.216,24.216h41.183C407.802,143.51,418.657,132.649,418.657,119.294z"/>
		</g>
		<g>
			<path fill="#1295CB" d="M470.005,65.426V24.207C470.005,10.861,459.144,0,445.796,0h-41.187
				c-13.355,0-24.223,10.861-24.223,24.207v22.291h14.173V24.207c0.012-5.518,4.53-10.044,10.036-10.044h41.2
				c5.521,0,10.043,4.526,10.043,10.044v41.224c0,5.522-4.522,10.04-10.043,10.04h-26.892l0,0h-36.299
				c3.829,8.34,12.239,14.164,22.004,14.164h41.187C459.144,89.635,470.005,78.774,470.005,65.426z"/>
		</g>
	</g>
	<g>
		<path fill="#1295CB" d="M6.93,132.628c-0.317,0.015-0.871,0.022-1.663,0.022s-1.886-0.103-3.284-0.312v5.852H0.014v-17.655
			c2.247-0.211,4.483-0.313,6.708-0.313c1.869,0,3.178,0.42,3.927,1.262c0.633,0.711,0.95,1.887,0.95,3.522v1.367
			c0,1.265-0.139,2.348-0.417,3.244C10.587,131.483,9.17,132.489,6.93,132.628z M6.802,121.89c-2.116,0-3.723,0.042-4.819,0.126
			v8.688c1.352,0.178,2.555,0.269,3.608,0.269c1.055,0,1.812-0.077,2.271-0.229c0.46-0.148,0.817-0.402,1.072-0.758
			c0.433-0.602,0.648-1.799,0.648-3.593v-1.436c0-1.104-0.216-1.893-0.648-2.364C8.517,122.123,7.806,121.89,6.802,121.89z"/>
		<path fill="#1295CB" d="M27.832,133.299c0,1.537,0.073,3.137,0.22,4.798l-1.714,0.139l-0.29-1.61
			c-0.98,0.788-2.278,1.336-3.893,1.645c-0.525,0.101-0.992,0.151-1.402,0.151c-0.409,0-0.77-0.021-1.083-0.06
			c-0.312-0.037-0.613-0.114-0.903-0.225c-0.289-0.113-0.558-0.269-0.805-0.47c-0.247-0.201-0.463-0.468-0.649-0.8
			c-0.394-0.703-0.59-1.546-0.59-2.53c0-0.985,0.071-1.749,0.214-2.295c0.143-0.544,0.38-0.998,0.712-1.36
			c0.657-0.719,1.761-1.078,3.313-1.078s3.209,0.294,4.97,0.881v-1.505c0-1.677-0.691-2.67-2.074-2.979
			c-0.448-0.101-0.961-0.15-1.541-0.15c-1.321,0-2.692,0.262-4.113,0.788l-0.429-1.669c0.394-0.261,1.397-0.497,3.012-0.707
			c0.51-0.061,1.122-0.093,1.836-0.093c0.714,0,1.415,0.085,2.103,0.257c0.688,0.168,1.259,0.446,1.714,0.833
			c0.927,0.764,1.391,2.005,1.391,3.72V133.299z M25.886,131.934c-1.807-0.456-3.476-0.684-5.005-0.684
			c-0.942,0-1.568,0.27-1.876,0.81c-0.208,0.379-0.313,0.939-0.313,1.681s0.041,1.277,0.122,1.61
			c0.082,0.332,0.214,0.605,0.399,0.821c0.363,0.409,0.962,0.615,1.796,0.615c1.305,0,2.599-0.337,3.881-1.008
			c0.394-0.201,0.749-0.425,1.065-0.673C25.909,134.271,25.886,133.214,25.886,131.934z"/>
		<path fill="#1295CB" d="M34.392,141.525c0.563,0.199,1.025,0.301,1.385,0.301c0.359,0,0.594-0.011,0.706-0.028
			c0.112-0.021,0.226-0.061,0.342-0.122c0.271-0.146,0.471-0.387,0.603-0.719c0.325-0.788,0.606-1.652,0.846-2.596l-5.318-13.96
			h2.143l3.591,10.161l0.544,1.785l0.498-1.798l3.174-10.148h2.016l-5.816,17.054c-0.424,1.33-1.405,1.992-2.942,1.992
			c-0.973,0-1.738-0.14-2.294-0.417L34.392,141.525z"/>
		<path fill="#1295CB" d="M56.187,125.978c-1.259,0-2.634,0.445-4.125,1.334v10.878h-1.923v-13.788h1.691l0.186,1.427
			c1.352-1.105,2.865-1.658,4.542-1.658c0.958,0,1.713,0.137,2.265,0.411s0.951,0.726,1.199,1.35
			c1.707-1.173,3.329-1.761,4.866-1.761c1.452,0,2.46,0.332,3.024,0.997c0.54,0.641,0.811,1.779,0.811,3.417v9.605h-1.946v-9.246
			c0-1.113-0.108-1.827-0.325-2.147c-0.216-0.321-0.473-0.538-0.77-0.649c-0.297-0.112-0.646-0.169-1.043-0.169
			c-0.398,0-0.773,0.036-1.124,0.11c-0.351,0.073-0.708,0.172-1.071,0.296c-0.734,0.255-1.437,0.578-2.109,0.975
			c0.039,0.462,0.058,0.872,0.058,1.226v9.605h-1.946v-9.246c0-1.113-0.108-1.827-0.324-2.147c-0.216-0.321-0.473-0.538-0.771-0.649
			C57.053,126.034,56.666,125.978,56.187,125.978z"/>
		<path fill="#1295CB" d="M86.241,137.46c-1.599,0.641-3.364,0.961-5.294,0.961c-1.12,0-2.069-0.117-2.85-0.349
			c-1.244-0.354-2.07-1.088-2.479-2.2c-0.378-1.044-0.567-2.587-0.567-4.635v-0.59c0-2.45,0.51-4.169,1.529-5.155
			c0.92-0.881,2.453-1.322,4.6-1.322c2.093,0,3.521,0.518,4.286,1.554c0.371,0.502,0.616,1.11,0.736,1.824s0.18,1.396,0.18,2.044
			c0,1.012-0.023,1.797-0.07,2.354c-1.089,0.046-2.066,0.067-2.931,0.067h-1.865c-1.946,0-3.445-0.083-4.495-0.253
			c0,1.775,0.224,3.015,0.672,3.718c0.548,0.857,1.641,1.287,3.278,1.287c1.637,0,3.205-0.322,4.704-0.964L86.241,137.46z
			 M84.422,130.404v-1.112c0-1.214-0.236-2.077-0.707-2.595c-0.526-0.581-1.433-0.869-2.723-0.869c-1.544,0-2.599,0.335-3.163,1.008
			c-0.541,0.641-0.811,1.829-0.811,3.568H84.422z"/>
		<path fill="#1295CB" d="M99.381,125.978c-1.506,0-3.039,0.445-4.599,1.334v10.878h-1.923v-13.788h1.691l0.186,1.427
			c0.841-0.689,1.888-1.179,3.139-1.473c0.51-0.122,1.108-0.186,1.795-0.186c0.688,0,1.294,0.081,1.819,0.237
			c0.525,0.159,0.942,0.412,1.251,0.76c0.563,0.625,0.846,1.766,0.846,3.417v9.605h-1.946v-9.246c0-1.113-0.108-1.827-0.324-2.147
			c-0.216-0.321-0.473-0.538-0.77-0.649C100.248,126.034,99.86,125.978,99.381,125.978z"/>
		<path fill="#1295CB" d="M117.063,137.528c-1.259,0.595-2.421,0.893-3.487,0.893c-1.93,0-3.028-0.826-3.29-2.48
			c-0.062-0.393-0.093-0.965-0.093-1.715v-8.212h-1.668v-1.427l1.668-0.186l0.301-3.15h1.61v3.15h4.02v1.612h-4.02v8.178
			c0,0.951,0.069,1.556,0.208,1.82c0.255,0.478,0.765,0.717,1.529,0.717s1.618-0.235,2.56-0.705L117.063,137.528z"/>
		<path fill="#1295CB" d="M121.804,135.455c1.591,0.889,3.19,1.332,4.797,1.332c1.336,0,2.12-0.476,2.351-1.425
			c0.078-0.325,0.116-0.722,0.116-1.189c0-0.467-0.054-0.83-0.162-1.087c-0.108-0.261-0.289-0.452-0.544-0.58
			c-0.255-0.128-0.593-0.223-1.014-0.282c-0.421-0.062-0.956-0.149-1.604-0.263c-0.649-0.11-1.244-0.237-1.784-0.376
			c-0.541-0.139-1-0.34-1.379-0.603c-0.803-0.564-1.189-1.514-1.158-2.849v-0.29c0-1.407,0.463-2.406,1.39-3.001
			c0.896-0.588,2.375-0.787,4.437-0.602c1.406,0.13,2.525,0.375,3.359,0.729l-0.544,1.749c-0.927-0.393-2.039-0.679-3.336-0.856
			c-0.401-0.055-0.778-0.08-1.129-0.08s-0.67,0.025-0.956,0.08s-0.525,0.153-0.718,0.301c-0.371,0.302-0.563,0.862-0.579,1.681
			c-0.023,0.965,0.248,1.578,0.811,1.841c0.54,0.256,1.182,0.432,1.923,0.528c0.741,0.097,1.348,0.182,1.819,0.253
			c0.471,0.075,0.899,0.174,1.286,0.296c0.386,0.124,0.718,0.321,0.997,0.592c0.579,0.547,0.861,1.502,0.846,2.862
			c-0.039,2.37-1.027,3.722-2.966,4.054c-0.586,0.101-1.173,0.151-1.761,0.151c-0.586,0-1.126-0.036-1.616-0.111
			c-0.49-0.072-0.959-0.175-1.408-0.306c-0.849-0.24-1.618-0.557-2.305-0.951L121.804,135.455z"/>
		<path fill="#1295CB" d="M150.831,125.978c-1.259,0-2.634,0.445-4.125,1.334v10.878h-1.923v-13.788h1.692l0.185,1.427
			c1.352-1.105,2.866-1.658,4.542-1.658c0.958,0,1.712,0.137,2.265,0.411c0.553,0.274,0.952,0.726,1.199,1.35
			c1.707-1.173,3.329-1.761,4.866-1.761c1.452,0,2.46,0.332,3.024,0.997c0.54,0.641,0.811,1.779,0.811,3.417v9.605h-1.947v-9.246
			c0-1.113-0.108-1.827-0.324-2.147c-0.216-0.321-0.473-0.538-0.77-0.649c-0.298-0.112-0.646-0.169-1.042-0.169
			c-0.398,0-0.773,0.036-1.125,0.11c-0.351,0.073-0.708,0.172-1.071,0.296c-0.734,0.255-1.437,0.578-2.108,0.975
			c0.039,0.462,0.058,0.872,0.058,1.226v9.605h-1.946v-9.246c0-1.113-0.108-1.827-0.324-2.147c-0.216-0.321-0.473-0.538-0.771-0.649
			C151.698,126.034,151.31,125.978,150.831,125.978z"/>
		<path fill="#1295CB" d="M180.642,133.299c0,1.537,0.074,3.137,0.22,4.798l-1.714,0.139l-0.29-1.61
			c-0.981,0.788-2.278,1.336-3.893,1.645c-0.525,0.101-0.992,0.151-1.402,0.151c-0.409,0-0.77-0.021-1.083-0.06
			c-0.312-0.037-0.614-0.114-0.904-0.225c-0.289-0.113-0.558-0.269-0.805-0.47s-0.463-0.468-0.648-0.8
			c-0.394-0.703-0.591-1.546-0.591-2.53c0-0.985,0.071-1.749,0.214-2.295c0.143-0.544,0.381-0.998,0.713-1.36
			c0.656-0.719,1.761-1.078,3.313-1.078c1.553,0,3.209,0.294,4.97,0.881v-1.505c0-1.677-0.691-2.67-2.073-2.979
			c-0.448-0.101-0.961-0.15-1.541-0.15c-1.32,0-2.691,0.262-4.112,0.788l-0.429-1.669c0.394-0.261,1.397-0.497,3.012-0.707
			c0.51-0.061,1.122-0.093,1.837-0.093c0.714,0,1.415,0.085,2.102,0.257c0.688,0.168,1.259,0.446,1.714,0.833
			c0.927,0.764,1.39,2.005,1.39,3.72V133.299z M178.696,131.934c-1.808-0.456-3.476-0.684-5.005-0.684
			c-0.942,0-1.568,0.27-1.876,0.81c-0.209,0.379-0.313,0.939-0.313,1.681s0.041,1.277,0.122,1.61c0.081,0.332,0.214,0.605,0.4,0.821
			c0.363,0.409,0.961,0.615,1.795,0.615c1.305,0,2.599-0.337,3.881-1.008c0.394-0.201,0.749-0.425,1.066-0.673
			C178.719,134.271,178.696,133.214,178.696,131.934z"/>
		<path fill="#1295CB" d="M196.458,136.647c-1.629,1.183-3.286,1.773-4.97,1.773c-1.861,0-3.1-0.683-3.718-2.052
			c-0.355-0.771-0.554-1.589-0.597-2.449c-0.043-0.862-0.064-1.618-0.064-2.271c0-0.653,0.006-1.312,0.018-1.975
			c0.011-0.665,0.06-1.28,0.145-1.845c0.085-0.562,0.218-1.071,0.4-1.522c0.181-0.451,0.442-0.836,0.782-1.152
			c0.703-0.657,1.863-0.985,3.481-0.985c1.619,0,3.08,0.282,4.386,0.847v-6.546l1.923-0.186v13.567c0,2.663,0.074,4.745,0.22,6.244
			l-1.727,0.139L196.458,136.647z M196.32,126.604c-1.391-0.464-2.734-0.695-4.032-0.695c-0.942,0-1.564,0.076-1.866,0.231
			c-0.301,0.152-0.531,0.354-0.689,0.603c-0.158,0.246-0.288,0.586-0.388,1.02c-0.178,0.81-0.267,2.146-0.267,4.007v0.257
			c0,1.736,0.189,2.938,0.568,3.603c0.41,0.702,1.17,1.053,2.282,1.053h0.174c1.066,0,2.201-0.338,3.406-1.02
			c0.332-0.185,0.618-0.37,0.858-0.556v-0.022c-0.039-0.72-0.059-1.827-0.059-3.324L196.32,126.604z"/>
		<path fill="#1295CB" d="M215.716,137.46c-1.599,0.641-3.364,0.961-5.294,0.961c-1.12,0-2.07-0.117-2.85-0.349
			c-1.244-0.354-2.07-1.088-2.479-2.2c-0.378-1.044-0.568-2.587-0.568-4.635v-0.59c0-2.45,0.51-4.169,1.53-5.155
			c0.919-0.881,2.452-1.322,4.599-1.322c2.093,0,3.522,0.518,4.287,1.554c0.371,0.502,0.616,1.11,0.735,1.824
			c0.12,0.714,0.18,1.396,0.18,2.044c0,1.012-0.023,1.797-0.069,2.354c-1.089,0.046-2.066,0.067-2.931,0.067h-1.866
			c-1.946,0-3.445-0.083-4.495-0.253c0,1.775,0.224,3.015,0.672,3.718c0.548,0.857,1.641,1.287,3.278,1.287
			c1.638,0,3.205-0.322,4.704-0.964L215.716,137.46z M213.897,130.404v-1.112c0-1.214-0.236-2.077-0.707-2.595
			c-0.525-0.581-1.433-0.869-2.723-0.869c-1.544,0-2.599,0.335-3.162,1.008c-0.541,0.641-0.811,1.829-0.811,3.568H213.897z"/>
		<path fill="#1295CB" d="M240.664,137.46c-1.599,0.641-3.363,0.961-5.294,0.961c-1.12,0-2.07-0.117-2.85-0.349
			c-1.244-0.354-2.07-1.088-2.479-2.2c-0.378-1.044-0.568-2.587-0.568-4.635v-0.59c0-2.45,0.509-4.169,1.529-5.155
			c0.919-0.881,2.452-1.322,4.599-1.322c2.093,0,3.521,0.518,4.287,1.554c0.371,0.502,0.616,1.11,0.735,1.824
			c0.12,0.714,0.18,1.396,0.18,2.044c0,1.012-0.022,1.797-0.069,2.354c-1.089,0.046-2.066,0.067-2.931,0.067h-1.865
			c-1.946,0-3.445-0.083-4.495-0.253c0,1.775,0.224,3.015,0.672,3.718c0.549,0.857,1.641,1.287,3.278,1.287
			c1.638,0,3.206-0.322,4.704-0.964L240.664,137.46z M238.845,130.404v-1.112c0-1.214-0.236-2.077-0.707-2.595
			c-0.525-0.581-1.433-0.869-2.723-0.869c-1.545,0-2.599,0.335-3.163,1.008c-0.541,0.641-0.811,1.829-0.811,3.568H238.845z"/>
		<path fill="#1295CB" d="M257.836,133.299c0,1.537,0.074,3.137,0.221,4.798l-1.716,0.139l-0.289-1.61
			c-0.98,0.788-2.278,1.336-3.893,1.645c-0.525,0.101-0.992,0.151-1.401,0.151s-0.77-0.021-1.083-0.06
			c-0.312-0.037-0.614-0.114-0.904-0.225c-0.289-0.113-0.558-0.269-0.805-0.47c-0.248-0.201-0.464-0.468-0.649-0.8
			c-0.394-0.703-0.591-1.546-0.591-2.53c0-0.985,0.071-1.749,0.214-2.295c0.144-0.544,0.381-0.998,0.712-1.36
			c0.657-0.719,1.762-1.078,3.313-1.078c1.553,0,3.209,0.294,4.971,0.881v-1.505c0-1.677-0.691-2.67-2.074-2.979
			c-0.447-0.101-0.962-0.15-1.541-0.15c-1.32,0-2.691,0.262-4.112,0.788l-0.429-1.669c0.394-0.261,1.398-0.497,3.012-0.707
			c0.509-0.061,1.122-0.093,1.836-0.093c0.714,0,1.415,0.085,2.103,0.257c0.688,0.168,1.259,0.446,1.715,0.833
			c0.927,0.764,1.39,2.005,1.39,3.72V133.299z M255.89,131.934c-1.808-0.456-3.476-0.684-5.004-0.684
			c-0.942,0-1.568,0.27-1.877,0.81c-0.208,0.379-0.313,0.939-0.313,1.681s0.041,1.277,0.122,1.61c0.082,0.332,0.215,0.605,0.4,0.821
			c0.363,0.409,0.962,0.615,1.795,0.615c1.305,0,2.599-0.337,3.881-1.008c0.394-0.201,0.749-0.425,1.065-0.673
			C255.913,134.271,255.89,133.214,255.89,131.934z"/>
		<path fill="#1295CB" d="M264.721,135.455c1.591,0.889,3.189,1.332,4.796,1.332c1.337,0,2.12-0.476,2.352-1.425
			c0.077-0.325,0.116-0.722,0.116-1.189c0-0.467-0.054-0.83-0.162-1.087c-0.108-0.261-0.29-0.452-0.545-0.58
			s-0.593-0.223-1.014-0.282c-0.421-0.062-0.955-0.149-1.604-0.263c-0.648-0.11-1.243-0.237-1.784-0.376
			c-0.54-0.139-1-0.34-1.379-0.603c-0.803-0.564-1.188-1.514-1.158-2.849v-0.29c0-1.407,0.464-2.406,1.391-3.001
			c0.896-0.588,2.375-0.787,4.438-0.602c1.405,0.13,2.525,0.375,3.359,0.729l-0.545,1.749c-0.927-0.393-2.039-0.679-3.336-0.856
			c-0.402-0.055-0.778-0.08-1.13-0.08s-0.67,0.025-0.956,0.08c-0.285,0.055-0.525,0.153-0.718,0.301
			c-0.371,0.302-0.563,0.862-0.58,1.681c-0.022,0.965,0.248,1.578,0.812,1.841c0.541,0.256,1.182,0.432,1.923,0.528
			c0.742,0.097,1.348,0.182,1.819,0.253c0.471,0.075,0.899,0.174,1.285,0.296c0.387,0.124,0.719,0.321,0.997,0.592
			c0.579,0.547,0.86,1.502,0.846,2.862c-0.039,2.37-1.027,3.722-2.966,4.054c-0.587,0.101-1.174,0.151-1.761,0.151
			s-1.126-0.036-1.617-0.111c-0.489-0.072-0.959-0.175-1.407-0.306c-0.85-0.24-1.617-0.557-2.306-0.951L264.721,135.455z"/>
		<path fill="#1295CB" d="M279.842,141.525c0.563,0.199,1.025,0.301,1.385,0.301c0.358,0,0.595-0.011,0.706-0.028
			c0.112-0.021,0.227-0.061,0.343-0.122c0.27-0.146,0.47-0.387,0.602-0.719c0.324-0.788,0.606-1.652,0.846-2.596l-5.317-13.96h2.144
			l3.591,10.161l0.545,1.785l0.498-1.798l3.174-10.148h2.016l-5.815,17.054c-0.424,1.33-1.405,1.992-2.942,1.992
			c-0.973,0-1.737-0.14-2.294-0.417L279.842,141.525z"/>
	</g>
</g>
</svg>
