<?xml version="1.0" encoding="utf-8"?>
<!-- Generator: Adobe Illustrator 24.1.2, SVG Export Plug-In . SVG Version: 6.00 Build 0)  -->
<svg version="1.1" id="Layer_1" xmlns="http://www.w3.org/2000/svg" xmlns:xlink="http://www.w3.org/1999/xlink" x="0px" y="0px"
	 viewBox="0 0 2500 812" style="enable-background:new 0 0 2500 812;" xml:space="preserve">
<style type="text/css">
	.st0{clip-path:url(#SVGID_2_);}
	.st1{fill:#003087;}
	.st2{fill:#009CDE;}
	.st3{fill:#012169;}
</style>
<g transform="matrix(2.07675 0 0 -2.07675 -11.153 92.77)">
	<g>
		<defs>
			<rect id="SVGID_1_" x="-1988.3" y="-994" width="5191.2" height="1686.3"/>
		</defs>
		<clipPath id="SVGID_2_">
			<use xlink:href="#SVGID_1_"  style="overflow:visible;"/>
		</clipPath>
		<g class="st0">
			<path class="st1" d="M254-32.1c-12.8,14.6-36,20.9-65.7,20.9h-86.1c-6.1,0-11.2-4.4-12.2-10.4L54.1-249.1c-0.6-4,2.1-7.8,6.2-8.5
				c0.4-0.1,0.8-0.1,1.2-0.1h53.2l13.4,84.7l-0.4-2.7c0.9,6,6.1,10.4,12.1,10.4h25.3c49.6,0,88.5,20.2,99.9,78.5
				c0.3,1.7,0.6,3.4,0.9,5C269.1-60.1,265.7-45.4,254-32.1"/>
			<path class="st2" d="M905-140.4c-3.3-21.3-19.5-21.3-35.3-21.3h-9l6.3,39.9c0.4,2.4,2.5,4.2,4.9,4.2h4.1c10.7,0,20.9,0,26.1-6.1
				C905.2-127.5,906.2-132.9,905-140.4 M898.1-84.7h-59.5c-4.1,0-7.5-3-8.2-7l-24-152.5c-0.4-2.7,1.4-5.2,4.1-5.7
				c0.3,0,0.5-0.1,0.8-0.1h30.5c2.8,0,5.3,2.1,5.7,4.9l6.8,43.2c0.6,4,4.1,7,8.2,7h18.8c39.2,0,61.8,18.9,67.7,56.5
				c2.7,16.4,0.1,29.3-7.6,38.4C933-89.9,918-84.7,898.1-84.7"/>
			<path class="st1" d="M480.9-140.4c-3.3-21.3-19.5-21.3-35.3-21.3h-9l6.3,39.9c0.4,2.4,2.5,4.2,4.9,4.2h4.1
				c10.7,0,20.9,0,26.1-6.1C481.1-127.5,482-132.9,480.9-140.4 M474-84.7h-59.5c-4.1,0-7.5-3-8.2-7l-24-152.5
				c-0.4-2.7,1.4-5.2,4.1-5.7c0.3,0,0.5-0.1,0.8-0.1h28.4c4.1,0,7.5,3,8.2,7l6.5,41.1c0.6,4,4.1,7,8.2,7h18.8
				c39.2,0,61.8,19,67.7,56.5c2.7,16.4,0.1,29.3-7.6,38.4C508.9-89.9,493.9-84.7,474-84.7 M612-195.1c-2.8-16.3-15.7-27.2-32.1-27.2
				c-8.3,0-14.9,2.7-19.1,7.7c-4.2,5-5.8,12.1-4.5,20c2.6,16.1,15.7,27.4,31.9,27.4c8.1,0,14.6-2.7,19-7.8
				C611.6-180.1,613.3-187.2,612-195.1 M651.7-139.7h-28.5c-2.4,0-4.5-1.8-4.9-4.2l-1.2-8l-2,2.9C609-140,595.2-137,581.5-137
				c-31.5,0-58.3-23.8-63.6-57.3c-2.7-16.7,1.1-32.6,10.6-43.8c8.7-10.2,21.1-14.5,35.9-14.5c25.4,0,39.4,16.3,39.4,16.3l-1.3-7.9
				c-0.4-2.7,1.4-5.2,4.1-5.7c0.3,0,0.5-0.1,0.8-0.1h25.6c4.1,0,7.5,3,8.2,7l15.4,97.5c0.4,2.7-1.4,5.2-4.1,5.7
				C652.2-139.7,652-139.7,651.7-139.7"/>
			<path class="st2" d="M1036.2-195.1c-2.8-16.3-15.7-27.2-32.1-27.2c-8.3,0-14.9,2.7-19.1,7.7c-4.2,5-5.8,12.1-4.5,20
				c2.6,16.1,15.7,27.4,31.9,27.4c8.1,0,14.6-2.7,19-7.8C1035.7-180.1,1037.4-187.2,1036.2-195.1 M1075.8-139.7h-28.5
				c-2.4,0-4.5-1.8-4.9-4.2l-1.2-8l-2,2.9c-6.2,8.9-19.9,11.9-33.6,11.9c-31.4,0-58.3-23.8-63.6-57.3c-2.7-16.7,1.2-32.6,10.6-43.8
				c8.7-10.2,21.1-14.5,35.9-14.5c25.4,0,39.4,16.3,39.4,16.3l-1.3-7.9c-0.4-2.7,1.4-5.2,4.1-5.7c0.3,0,0.5-0.1,0.8-0.1h25.6
				c4.1,0,7.5,3,8.2,7l15.4,97.5c0.4,2.7-1.4,5.2-4.1,5.7C1076.4-139.7,1076.1-139.7,1075.8-139.7"/>
			<path class="st1" d="M803.4-139.7h-28.6c-2.7,0-5.3-1.4-6.8-3.6l-39.5-58.1l-16.7,55.9c-1,3.5-4.3,5.9-7.9,5.9h-28.1
				c-2.7,0-5-2.2-5-5c0-0.5,0.1-1.1,0.3-1.6l31.5-92.5l-29.6-41.8c-1.6-2.2-1-5.3,1.2-6.9c0.8-0.6,1.8-0.9,2.9-0.9h28.6
				c2.7,0,5.2,1.3,6.8,3.5l95.2,137.4c1.6,2.2,1,5.3-1.2,6.9C805.4-140,804.4-139.7,803.4-139.7"/>
			<path class="st2" d="M1109.4-88.9L1085-244.1c-0.4-2.7,1.4-5.2,4.1-5.7c0.3,0,0.5-0.1,0.8-0.1h24.5c4.1,0,7.5,3,8.2,7l24.1,152.5
				c0.4,2.7-1.4,5.2-4.1,5.7c-0.3,0-0.5,0.1-0.8,0.1h-27.5C1111.9-84.7,1109.8-86.5,1109.4-88.9"/>
			<path class="st1" d="M254-32.1c-12.8,14.6-36,20.9-65.7,20.9h-86.1c-6.1,0-11.2-4.4-12.2-10.4L54.1-249.1c-0.6-4,2.1-7.8,6.2-8.5
				c0.4-0.1,0.8-0.1,1.2-0.1h53.2l13.4,84.7l-0.4-2.7c0.9,6,6.1,10.4,12.1,10.4h25.3c49.6,0,88.5,20.2,99.9,78.5
				c0.3,1.7,0.6,3.4,0.9,5C269.1-60.1,265.7-45.4,254-32.1"/>
			<path class="st1" d="M142.3-81.9c0.8,5.2,5.3,9.1,10.6,9.1h67.5c8,0,15.5-0.5,22.3-1.6c3.7-0.6,7.4-1.4,11-2.5
				c4.1-1.2,8.1-2.7,11.9-4.7c3.4,21.6,0,36.2-11.7,49.5c-12.8,14.6-36,20.9-65.7,20.9h-86.1c-6.1,0-11.2-4.4-12.2-10.4L54.1-249.1
				c-0.6-4,2.1-7.8,6.1-8.5c0.4-0.1,0.8-0.1,1.2-0.1h53.2l13.4,84.7L142.3-81.9z"/>
			<path class="st2" d="M265.7-81.7c-0.3-1.7-0.6-3.4-0.9-5c-11.4-58.3-50.2-78.5-99.9-78.5h-25.3c-6.1,0-11.2-4.4-12.1-10.4
				l-12.9-82l-3.7-23.3c-0.6-3.5,1.8-6.8,5.4-7.4c0.3-0.1,0.7-0.1,1-0.1h44.8c5.3,0,9.8,3.9,10.6,9.1l0.4,2.3l8.4,53.5l0.5,3
				c0.8,5.2,5.3,9.1,10.7,9.1h6.7c43.4,0,77.4,17.6,87.4,68.7c4.1,21.3,2,39.1-9,51.6C274.5-87.2,270.3-84,265.7-81.7"/>
			<path class="st3" d="M253.8-76.9c-1.7,0.5-3.5,1-5.4,1.4s-3.7,0.8-5.7,1.1c-6.8,1.1-14.3,1.6-22.3,1.6h-67.5
				c-5.3,0-9.8-3.9-10.6-9.1l-14.4-91l-0.4-2.6c0.9,6,6.1,10.4,12.1,10.4h25.3c49.6,0,88.5,20.2,99.9,78.5c0.3,1.7,0.6,3.4,0.9,5
				c-3,1.6-6.1,2.9-9.3,3.9C255.5-77.4,254.6-77.2,253.8-76.9"/>
		</g>
	</g>
</g>
</svg>
