<?xml version="1.0" encoding="iso-8859-1"?>
<!-- Generator: Adobe Illustrator 16.0.4, SVG Export Plug-In . SVG Version: 6.00 Build 0)  -->
<!DOCTYPE svg PUBLIC "-//W3C//DTD SVG 1.1//EN" "http://www.w3.org/Graphics/SVG/1.1/DTD/svg11.dtd">
<svg version="1.1" id="Layer_1" xmlns="http://www.w3.org/2000/svg" xmlns:xlink="http://www.w3.org/1999/xlink" x="0px" y="0px"
	 width="746.939px" height="180.605px" viewBox="0 0 746.939 180.605" style="enable-background:new 0 0 746.939 180.605;"
	 xml:space="preserve">
<g>
	<path style="fill:#74CAF1;" d="M136.379,36.193c-12.143,0-23.527,2.37-33.333,6.508c-9.806-4.138-21.19-6.508-33.333-6.508
		c-36.819,0-66.667,21.773-66.667,48.631c0,1.205,0.062,2.396,0.181,3.58c0.02,0.203,0.044,0.404,0.067,0.607
		c2.911,24.898,31.533,44.445,66.419,44.445c8.31,0,16.263-1.113,23.6-3.141c3.384-0.934,6.638-2.062,9.733-3.367
		c18.364-7.75,31.188-21.707,33.085-37.938c0.023-0.203,0.048-0.404,0.068-0.607h-0.143h-33.011H70.036
		c2.144-15.973,14.876-29.676,33.011-37.33c3.096-1.305,6.35-2.434,9.733-3.368c7.337-2.026,15.29-3.139,23.6-3.139
		c34.602,0,63.043,19.229,66.345,43.837c0.026,0.201,0.05,0.404,0.074,0.607c0.022-0.203,0.048-0.404,0.068-0.607
		c0.117-1.184,0.18-2.375,0.18-3.58C203.046,57.967,173.199,36.193,136.379,36.193z"/>
	<path style="fill:#3B9AC9;" d="M202.798,89.012c-0.024-0.203-0.048-0.406-0.074-0.607c-3.302-24.607-31.743-43.837-66.345-43.837
		c-8.31,0-16.263,1.112-23.6,3.139c-3.384,0.935-6.638,2.063-9.733,3.368c-18.135,7.654-30.867,21.357-33.011,37.33h33.011h33.011
		h0.143c-0.021,0.203-0.045,0.404-0.068,0.607c-1.897,16.23-14.721,30.188-33.085,37.938c-3.096,1.305-6.35,2.434-9.733,3.367
		c-7.337,2.027-15.29,3.141-23.6,3.141c-34.886,0-63.508-19.547-66.419-44.445c-0.161,1.381-0.248,2.775-0.248,4.188
		c0,26.857,29.848,48.631,66.667,48.631c12.143,0,23.527-2.369,33.333-6.508c9.806,4.139,21.19,6.508,33.333,6.508
		c36.819,0,66.667-21.773,66.667-48.631C203.046,91.787,202.958,90.393,202.798,89.012z"/>
</g>
<g>
	<path style="fill:#28303A;" d="M309.634,72.83c0,4.901-0.524,10.076-1.574,15.525c-1.051,5.452-2.551,10.702-4.5,15.75
		c-1.95,5.051-4.351,9.577-7.2,13.575c-2.851,4-6.026,7-9.525,9v0.449l19.2-0.449l-2.55,15.15h-41.55
		c-10.2,0-17.951-3.174-23.25-9.525c-5.301-6.35-7.95-15.474-7.95-27.375c0-8.6,1.073-17.176,3.225-25.725
		c2.149-8.55,5.25-16.249,9.3-23.1c4.05-6.848,9.023-12.398,14.925-16.65c5.898-4.249,12.548-6.375,19.949-6.375
		c5.199,0,9.773,0.975,13.726,2.925c3.949,1.95,7.249,4.676,9.899,8.175c2.648,3.501,4.625,7.702,5.926,12.6
		C308.982,61.68,309.634,67.031,309.634,72.83z M291.634,75.379c0-3.3-0.201-6.525-0.6-9.675c-0.4-3.15-1.125-5.948-2.175-8.4
		c-1.05-2.449-2.526-4.425-4.425-5.925c-1.901-1.5-4.351-2.25-7.351-2.25c-4.5,0-8.526,1.852-12.075,5.55
		c-3.551,3.701-6.551,8.325-9,13.875c-2.451,5.55-4.326,11.55-5.625,18c-1.301,6.449-1.949,12.476-1.949,18.074
		c0,6.701,1.298,11.951,3.899,15.75c2.6,3.803,6.45,5.701,11.55,5.701c4.299,0,8.176-1.65,11.625-4.951
		c3.45-3.299,6.375-7.447,8.775-12.449c2.4-5,4.224-10.475,5.475-16.426C291.009,86.307,291.634,80.681,291.634,75.379z"/>
	<path style="fill:#28303A;" d="M372.633,122.93c-0.201,1-0.428,2.377-0.676,4.125c-0.25,1.75-0.525,3.564-0.825,5.441
		c-0.3,1.881-0.576,3.684-0.825,5.41c-0.25,1.727-0.426,3.035-0.524,3.924h-15.45c0.199-1.5,0.424-3.424,0.675-5.775
		c0.249-2.348,0.574-4.625,0.976-6.825h-0.301c-1.987,4.2-4.718,7.776-8.191,10.726c-3.473,2.947-7.594,4.424-12.358,4.424
		c-3.028,0-5.602-0.52-7.72-1.559c-2.119-1.037-3.812-2.422-5.072-4.154s-2.196-3.713-2.801-5.941
		c-0.604-2.23-0.907-4.494-0.907-6.795c0-1.599,0.101-3.5,0.303-5.7c0.201-2.198,0.504-4.351,0.907-6.45l8.473-48h16.268
		l-8.4,47.849c-0.501,2.502-0.75,4.901-0.75,7.201c0,2.602,0.523,4.799,1.568,6.6c1.045,1.8,3.012,2.699,5.899,2.699
		c1.892,0,3.708-0.524,5.451-1.574c1.741-1.051,3.31-2.475,4.704-4.275c1.393-1.8,2.588-3.924,3.584-6.375
		c0.996-2.449,1.743-5.123,2.24-8.025l7.617-44.099h16.335L372.633,122.93z"/>
	<path style="fill:#28303A;" d="M406.381,141.83h-16.199l13.35-76.201h16.199L406.381,141.83z M424.532,41.93c0,3.202-1,5.901-3,8.1
		c-2.002,2.201-4.5,3.3-7.5,3.3c-2.801,0-4.949-0.874-6.449-2.625c-1.5-1.749-2.25-3.773-2.25-6.075c0-3,0.998-5.674,3-8.025
		c1.998-2.348,4.549-3.525,7.648-3.525c2.701,0,4.801,0.825,6.301,2.475S424.532,39.331,424.532,41.93z"/>
	<path style="fill:#28303A;" d="M471.331,81.379c-0.9-1.099-2.025-1.973-3.375-2.625c-1.35-0.649-3.127-0.975-5.324-0.975
		c-2.902,0-5.502,1.176-7.801,3.525c-2.301,2.351-4.275,5.324-5.926,8.925c-1.648,3.601-2.9,7.526-3.75,11.774
		c-0.85,4.252-1.273,8.227-1.273,11.926c0,4.8,0.799,8.576,2.398,11.324c1.6,2.752,4.5,4.125,8.701,4.125
		c1.898,0,3.549-0.322,4.949-0.975c1.4-0.648,2.9-1.574,4.5-2.775l4.951,12.9c-2.201,1.801-4.801,3.225-7.801,4.275
		s-6.102,1.574-9.301,1.574c-4.301,0-7.975-0.75-11.023-2.25c-3.053-1.5-5.576-3.547-7.576-6.148
		c-2.002-2.6-3.475-5.676-4.424-9.227c-0.953-3.548-1.426-7.373-1.426-11.475c0-6.199,0.799-12.424,2.4-18.675
		c1.598-6.249,3.9-11.851,6.9-16.8c3-4.95,6.697-8.974,11.1-12.075c4.398-3.098,9.398-4.65,15-4.65c4.5,0,8.074,0.626,10.725,1.875
		c2.648,1.251,4.674,2.625,6.074,4.125L471.331,81.379z"/>
	<path style="fill:#28303A;" d="M515.581,101.629l18.6,40.201h-17.551l-16.049-36.75h-0.301l-6.15,36.75h-15.898l19.648-113.4h15.9
		l-12.15,69.3h0.301l25.5-32.1h18.9L515.581,101.629z"/>
	<path style="fill:#28303A;" d="M617.428,61.43c0,6-0.824,11.301-2.475,15.9c-1.65,4.601-3.975,8.475-6.975,11.625
		c-3,3.149-6.6,5.549-10.801,7.199c-4.199,1.65-8.85,2.475-13.949,2.475h-12.9l-7.65,43.201h-16.799l18.449-106.201h27
		c3.5,0,6.826,0.502,9.975,1.5c3.15,1.001,5.926,2.55,8.326,4.65c2.4,2.1,4.299,4.776,5.699,8.025
		C616.729,53.055,617.428,56.93,617.428,61.43z M600.928,63.83c0-4.2-1.025-7.523-3.074-9.975c-2.051-2.449-5.176-3.675-9.375-3.675
		h-9.9l-5.85,34.5h10.65c5.4,0,9.674-1.85,12.824-5.55C599.354,75.431,600.928,70.331,600.928,63.83z"/>
	<path style="fill:#28303A;" d="M668.879,84.379c0,1.901-0.127,3.803-0.375,5.701c-0.25,1.9-0.576,4-0.975,6.299l-5.1,30
		c-0.502,2.801-0.951,5.727-1.35,8.775c-0.402,3.053-0.602,5.275-0.602,6.676h-13.648c0-0.6,0.049-1.4,0.148-2.4
		c0.1-0.998,0.227-2.049,0.375-3.15c0.15-1.1,0.301-2.174,0.451-3.225s0.322-1.973,0.525-2.775h-0.301
		c-1.801,4.201-4.252,7.451-7.35,9.75c-3.102,2.299-7.002,3.451-11.701,3.451c-2.1,0-4.125-0.352-6.074-1.051
		s-3.676-1.773-5.176-3.225c-1.5-1.449-2.699-3.301-3.6-5.551s-1.35-4.973-1.35-8.175c0-5.899,1.051-10.823,3.15-14.774
		c2.1-3.949,4.85-7.125,8.25-9.525c3.398-2.4,7.223-4.125,11.475-5.176c4.25-1.049,8.574-1.574,12.975-1.574h4.5
		c0.398-2.199,0.65-3.825,0.75-4.875c0.1-1.051,0.15-1.924,0.15-2.625c0-6.799-3.051-10.2-9.15-10.2c-2.801,0-5.5,0.701-8.1,2.1
		c-2.602,1.401-4.9,3.101-6.9,5.1l-6.6-10.2c3.098-3.199,6.848-5.775,11.25-7.725c4.398-1.95,8.699-2.925,12.9-2.925
		c7.5,0,12.949,1.875,16.35,5.625C667.178,72.455,668.879,77.681,668.879,84.379z M646.68,105.68c-2.4,0-4.752,0.3-7.051,0.9
		c-2.301,0.6-4.35,1.551-6.15,2.85c-1.799,1.301-3.25,3.025-4.35,5.175c-1.102,2.151-1.65,4.776-1.65,7.875
		c0,3,0.699,5.175,2.102,6.524c1.398,1.35,3.098,2.025,5.1,2.025c2.299,0,4.35-0.648,6.15-1.949
		c1.799-1.299,3.375-2.975,4.725-5.025c1.35-2.049,2.475-4.299,3.375-6.75c0.9-2.449,1.549-4.875,1.949-7.275l0.75-4.35H646.68z"/>
	<path style="fill:#28303A;" d="M704.428,152.779c-1.701,3.799-3.4,7.225-5.1,10.275c-1.703,3.049-3.652,5.674-5.852,7.875
		c-2.199,2.199-4.648,3.9-7.35,5.1c-2.699,1.201-5.85,1.801-9.449,1.801c-1.801,0-3.398-0.127-4.801-0.375
		c-1.398-0.252-2.648-0.576-3.75-0.975l3-14.4c1.002,0.6,2.65,0.9,4.951,0.9c2.797,0,4.998-0.826,6.6-2.477
		c1.598-1.648,3.049-3.975,4.35-6.975l4.199-9.75l-8.699-78.15h16.801l3.6,58.05h0.299l22.801-58.05h16.65L704.428,152.779z"/>
</g>
</svg>
