<?xml version="1.0" encoding="utf-8"?>
<!-- Generator: Adobe Illustrator 23.0.0, SVG Export Plug-In . SVG Version: 6.00 Build 0)  -->
<svg version="1.1" id="Logo" xmlns="http://www.w3.org/2000/svg" xmlns:xlink="http://www.w3.org/1999/xlink" x="0px" y="0px"
	 viewBox="0 0 1950 927" style="enable-background:new 0 0 1950 927;" xml:space="preserve">
<style type="text/css">
	.st0{fill:#194B84;}
	.st1{fill:#1FA97D;}
</style>
<g>
	<path class="st0" d="M327,300c-5.3-1.6-11.3-2.4-18.1-2.4c-14.4,0-27.4,3.5-38.9,10.4c-11.5,6.9-19.9,17.2-25.2,30.7l-5.7-35.4h-72
		v233.2c9.4,0.5,49.2,0.2,87.9-34.6v-69c0-18.6,4.1-32.5,12.2-42c8.1-9.4,21.3-14.1,39.6-14.1h28.3v-73.8
		C334.9,302.6,332.3,301.6,327,300z"/>
	<path class="st0" d="M622.6,420c0-41.2-11.3-71.9-33.8-91.9c-22.5-20-55.2-30-97.9-30c-41,0-73.1,10.3-96.3,30.9
		c-23.3,20.6-34.9,51-34.9,91c0,41,11.9,71.5,35.8,91.7c23.9,20.2,57.4,30.3,100.8,30.3c41.2,0,72.6-8,94.1-23.9
		c21.5-15.9,32.3-38,32.3-66.3h-85.3c0,10.3-3.5,18.6-10.4,24.8c-6.9,6.2-17.7,9.3-32.5,9.3c-16.2,0-28.1-4.3-35.6-12.8
		c-7.5-8.5-11.3-21.2-11.3-38h175V420z M448.1,393.5c3.2-26.2,18.7-39.3,46.4-39.3c12.4,0,22,3.5,28.9,10.6
		c6.9,7.1,10.4,16.6,10.4,28.7H448.1z"/>
	<path class="st0" d="M917.4,420c0-41.2-11.3-71.9-33.8-91.9c-22.5-20-55.2-30-97.9-30c-41,0-73.1,10.3-96.3,30.9
		c-23.3,20.6-34.9,51-34.9,91c0,41,11.9,71.5,35.8,91.7c23.9,20.2,57.4,30.3,100.8,30.3c41.2,0,72.6-8,94.1-23.9
		c21.5-15.9,32.3-38,32.3-66.3h-85.3c0,10.3-3.5,18.6-10.4,24.8c-6.9,6.2-17.7,9.3-32.5,9.3c-16.2,0-28.1-4.3-35.6-12.8
		c-7.5-8.5-11.3-21.2-11.3-38h175V420z M742.8,393.5c3.2-26.2,18.7-39.3,46.4-39.3c12.4,0,22,3.5,28.9,10.6
		c6.9,7.1,10.4,16.6,10.4,28.7H742.8z"/>
	<path class="st1" d="M1186.5,328.9c-17.1-20.6-41.4-30.9-72.9-30.9c-32.4,0-57.2,12.8-74.2,38.5l-7.5-33.1h-71.6v320.4h87.9V515.4
		c16.5,17.7,38.3,26.5,65.4,26.5c31.5,0,55.8-10.2,72.9-30.7c17.1-20.5,25.6-50.7,25.6-90.8C1212.2,380,1203.6,349.5,1186.5,328.9z
		 M1124.2,431.5c0,30.4-12.7,45.5-38,45.5c-13,0-22.7-4.6-29.2-13.9c-6.5-9.3-9.7-21.3-9.7-36v-14.6c0-14.7,3.2-26.7,9.7-35.8
		c6.5-9.1,16.2-13.7,29.2-13.7c25.3,0,38,15,38,45.1V431.5z"/>
	<path class="st1" d="M1504.7,482.3c-4.7,0-8.2-1.6-10.6-4.9c-2.4-3.2-3.5-7.4-3.5-12.4v-91c0-26.8-11.2-46.2-33.6-58.1
		c-22.4-11.9-51.4-17.9-87.1-17.9c-39.2,0-69.3,6.5-90.4,19.4c-21.1,13-31.6,30.5-31.6,52.6c0,2.6,0.1,4.7,0.4,6.2h86.6v-1.8
		c0-7.1,3.3-12.2,9.9-15.5c6.6-3.2,14.5-4.9,23.7-4.9c10,0,18.2,2.4,24.5,7.1c6.3,4.7,9.5,11.7,9.5,20.8v11.5
		c-37.1,0-67.2,2.2-90.2,6.6c-23,4.4-40.6,12.6-52.8,24.5c-12.2,11.9-18.3,29.2-18.3,51.9c0,43.6,27.4,65.4,82.2,65.4
		c18.6,0,34.8-2.6,48.6-8c13.8-5.3,26.4-12.4,37.6-21.2c4.1,9.1,11.7,16.3,22.8,21.4c11.1,5.1,25.1,7.7,42.2,7.7
		c8.8,0,16.6-0.7,23.4-2c6.8-1.3,12-2.7,15.7-4c3.7-1.3,6-2.3,6.8-2.9v-50.8H1504.7z M1402.6,454.9c0,9.1-4.4,16.8-13,23
		c-8.7,6.2-18.8,9.3-30.3,9.3c-20,0-30.1-7.4-30.1-22.1c0-9.1,6-16.4,17.9-21.9c11.9-5.5,30.4-8.2,55.5-8.2V454.9z"/>
	<path class="st1" d="M1706.2,303.6l-41,154.8h-3.1l-44.6-155.1h-94.6l92.8,233.3c-4.1,21.5-17.2,32.3-39.3,32.3H1541v52.6
		c14.7,5.3,31.7,8,50.8,8c31.5,0,56.1-8.5,73.6-25.4c17.5-16.9,32.3-41.8,44.4-74.5l73.2-199.4
		C1749.2,304.6,1716.5,303.3,1706.2,303.6z"/>
</g>
</svg>
