<svg xmlns="http://www.w3.org/2000/svg" viewBox="0 0 148.32 43.75"><path class="a" d="M10.43 33.75c-3.86 0-7.33-.43-10.43-3.53l4-4a8.88 8.88 0 006.53 2.3c2.12 0 4.33-.7 4.33-2.54 0-1.22-.66-2.06-2.59-2.25l-3.85-.38C4 22.93 1.27 21 1.27 16.49c0-5.08 4.47-7.8 9.45-7.8 3.81 0 7 .66 9.35 2.87l-3.76 3.8c-1.41-1.27-3.57-1.64-5.68-1.64-2.45 0-3.48 1.13-3.48 2.35 0 .89.38 1.92 2.54 2.11l3.85.38c4.84.47 7.29 3 7.29 7.19-.05 5.41-4.66 8-10.4 8zM35.63 33.47v-2.12a7.44 7.44 0 01-6 2.35c-2.77 0-4.79-.7-6.25-2.16a7.87 7.87 0 01-2-5.5c0-3.9 2.68-7.1 8.37-7.1h5.78v-1.22c0-2.68-1.32-3.85-4.56-3.85a5.25 5.25 0 00-4.7 2l-3.94-3.79c2.39-2.63 4.74-3.38 8.83-3.38 6.86 0 10.44 2.91 10.44 8.65v16.12zm-.14-10.34h-4.84c-2.21 0-3.44 1-3.44 2.77s1.13 2.82 3.53 2.82c1.69 0 2.77-.14 3.85-1.18.66-.61.9-1.59.9-3.1zM51.94 42.72c-3.76 0-6.35-.75-8.89-3.19l3.81-3.85a6.25 6.25 0 004.79 1.87c3.67 0 4.94-2.58 4.94-5.07v-2.49a7.19 7.19 0 01-5.83 2.44 8.17 8.17 0 01-5.83-2.15c-2.3-2.31-2.5-5.46-2.5-9.74s.19-7.38 2.49-9.68A8.3 8.3 0 0150.8 8.7a7.17 7.17 0 016 2.58v-2.3h5.92v23.59c-.02 5.88-4.2 10.15-10.78 10.15zm.61-28.52c-3.62 0-4 3.1-4 6.34 0 3.24.38 6.39 4 6.39s4-3.15 4-6.39c0-3.24-.38-6.34-4-6.34zM69.66 23.13c0 3.15 1.92 5.45 5.35 5.45a6.78 6.78 0 005.55-2.3l3.71 3.61a11.66 11.66 0 01-9.3 3.86c-5.78 0-11.33-2.63-11.33-12.55 0-8 4.32-12.5 10.67-12.5 6.81 0 10.67 5 10.67 11.7v2.73zm8.77-6.85a4.56 4.56 0 00-8.18 0 6.58 6.58 0 00-.56 2.63h9.3a6.94 6.94 0 00-.56-2.63z" fill="#00dc00"/><path class="a" d="M101.8 19.28h-9.73v14.2h-2.53V0h12.26c5.78 0 10.11 3.48 10.11 9.64s-4.33 9.64-10.11 9.64zm-.28-17h-9.45v14.74h9.45c4.65 0 7.85-2.35 7.85-7.38 0-5.03-3.2-7.36-7.85-7.36zM126.71 31.21c-1.92 1.93-3.71 2.54-6.91 2.54-3.38 0-5.21-.57-6.67-2.07a6.27 6.27 0 01-1.64-4.4c0-4.13 3-6.53 7.89-6.53h7.33v-2.56c0-3.62-1.74-5.54-6.39-5.54-3.2 0-4.79.8-6.25 2.86l-1.74-1.5c1.93-2.68 4.28-3.48 8-3.48 6 0 8.79 2.68 8.79 7.43v15.51h-2.4zm-7.05-8.55c-3.85 0-5.78 1.5-5.78 4.56 0 3.06 1.79 4.41 5.92 4.41 2.07 0 4-.18 5.64-1.74.85-.79 1.27-2.25 1.27-4.32v-2.91zM136.25 42.28a6.1 6.1 0 01-4.27 1.46h-1.13V41.6h.89c2.59 0 3.34-.85 4.14-3.11l1.83-5-8.28-22.68h2.63l6.82 19.84 6.81-19.84h2.63L137.8 39.62a5.93 5.93 0 01-1.55 2.66z" fill="#8e8b86"/></svg>